<svg width="42" height="42" viewBox="0 0 42 42" fill="none" xmlns="http://www.w3.org/2000/svg">
<path d="M1.3125 8.75H40.6875" stroke="#BFCBD8" stroke-width="1.5" stroke-linecap="round" stroke-linejoin="round"/>
<path d="M3.9375 17.5V8.75H38.0625V17.5C38.0625 17.9641 37.8781 18.4093 37.5499 18.7374C37.2218 19.0655 36.7766 19.25 36.3125 19.25H5.6875C5.22337 19.25 4.77825 19.0655 4.45006 18.7374C4.12188 18.4093 3.9375 17.9641 3.9375 17.5Z" stroke="#BFCBD8" stroke-width="1.5" stroke-linecap="round" stroke-linejoin="round"/>
<path d="M35.4375 19.25C35.4375 23.079 33.9164 26.7514 31.2088 29.4588C28.5014 32.1664 24.829 33.6875 21 33.6875C17.1709 33.6875 13.4987 32.1664 10.7911 29.4588C8.08358 26.7514 6.5625 23.079 6.5625 19.25" stroke="#BFCBD8" stroke-width="1.5" stroke-linecap="round" stroke-linejoin="round"/>
<path d="M32.8125 14H24.9375" stroke="#BFCBD8" stroke-width="1.5" stroke-linecap="round" stroke-linejoin="round"/>
<path d="M21 26.4688C20.6376 26.4688 20.3438 26.1749 20.3438 25.8125C20.3438 25.4501 20.6376 25.1562 21 25.1562" stroke="#BFCBD8" stroke-width="1.5"/>
<path d="M21 26.4688C21.3624 26.4688 21.6562 26.1749 21.6562 25.8125C21.6562 25.4501 21.3624 25.1562 21 25.1562" stroke="#BFCBD8" stroke-width="1.5"/>
</svg>
