<svg width="24" height="24" viewBox="0 0 24 24" fill="none" xmlns="http://www.w3.org/2000/svg">
<g clip-path="url(#clip0_443_1706)">
<path d="M1.5 16.5H9.5C9.5 16.5 10.5 16.5 10.5 17.5V22.5C10.5 22.5 10.5 23.5 9.5 23.5H1.5C1.5 23.5 0.5 23.5 0.5 22.5V17.5C0.5 17.5 0.5 16.5 1.5 16.5Z" stroke="#BFCBD8" stroke-linecap="round" stroke-linejoin="round"/>
<path d="M22.5 23.5H14.5C14.5 23.5 13.5 23.5 13.5 22.5V11.5C13.5 11.5 13.5 10.5 14.5 10.5H22.5C22.5 10.5 23.5 10.5 23.5 11.5V22.5C23.5 22.5 23.5 23.5 22.5 23.5Z" stroke="#BFCBD8" stroke-linecap="round" stroke-linejoin="round"/>
<path d="M22.5 7.5H14.5C14.5 7.5 13.5 7.5 13.5 6.5V1.5C13.5 1.5 13.5 0.5 14.5 0.5H22.5C22.5 0.5 23.5 0.5 23.5 1.5V6.5C23.5 6.5 23.5 7.5 22.5 7.5Z" stroke="#BFCBD8" stroke-linecap="round" stroke-linejoin="round"/>
<path d="M1.5 0.5H9.5C9.5 0.5 10.5 0.5 10.5 1.5V12.5C10.5 12.5 10.5 13.5 9.5 13.5H1.5C1.5 13.5 0.5 13.5 0.5 12.5V1.5C0.5 1.5 0.5 0.5 1.5 0.5Z" stroke="#BFCBD8" stroke-linecap="round" stroke-linejoin="round"/>
</g>
<defs>
<clipPath id="clip0_443_1706">
<rect width="24" height="24" fill="white"/>
</clipPath>
</defs>
</svg>
