<svg width="35" height="11" viewBox="0 0 35 11" fill="none" xmlns="http://www.w3.org/2000/svg">
<path d="M34.9998 10.2237H27.9631V8.74298L30.4873 6.19057C30.995 5.6641 31.4039 5.22695 31.7141 4.87911C32.0244 4.52186 32.25 4.20223 32.391 3.92019C32.532 3.62876 32.6025 3.31852 32.6025 2.98948C32.6025 2.58523 32.4897 2.28439 32.2641 2.08697C32.0479 1.88954 31.7517 1.79083 31.3757 1.79083C30.9903 1.79083 30.6142 1.88014 30.2476 2.05876C29.8809 2.23739 29.4955 2.49122 29.0912 2.82026L27.9349 1.45239C28.2263 1.19856 28.5319 0.963532 28.8515 0.747306C29.1805 0.53108 29.5566 0.357159 29.9796 0.225543C30.4121 0.0845258 30.9291 0.0140171 31.5308 0.0140171C32.1889 0.0140171 32.753 0.136232 33.223 0.380662C33.7025 0.61569 34.0691 0.94003 34.323 1.35368C34.5862 1.75793 34.7178 2.21859 34.7178 2.73565C34.7178 3.1587 34.652 3.54885 34.5204 3.90609C34.3982 4.26333 34.2148 4.61118 33.9704 4.94962C33.7354 5.27866 33.444 5.6218 33.0961 5.97904C32.7483 6.32688 32.3534 6.70763 31.9116 7.12128L30.6142 8.33403V8.43274H34.9998V10.2237Z" fill="#BFCBD8"/>
<path d="M23.5594 3.79341C24.1705 3.79341 24.7158 3.91093 25.1952 4.14596C25.6747 4.38099 26.0507 4.72413 26.3233 5.17538C26.6054 5.62664 26.7464 6.186 26.7464 6.85349C26.7464 7.57737 26.596 8.20255 26.2951 8.72901C25.9943 9.25548 25.5431 9.65973 24.9414 9.94176C24.3491 10.2238 23.6111 10.3648 22.7274 10.3648C22.2009 10.3648 21.7027 10.3178 21.2326 10.2238C20.772 10.1298 20.3677 9.99346 20.0199 9.81484V7.98162C20.3677 8.16024 20.7861 8.31536 21.2749 8.44698C21.7638 8.56919 22.2245 8.6303 22.6569 8.6303C23.08 8.6303 23.4325 8.57389 23.7145 8.46108C24.006 8.34827 24.2269 8.17435 24.3773 7.93932C24.5277 7.70429 24.6029 7.40345 24.6029 7.03681C24.6029 6.53855 24.4384 6.1625 24.1094 5.90867C23.7803 5.64544 23.2727 5.51382 22.5864 5.51382C22.3232 5.51382 22.0505 5.54203 21.7685 5.59843C21.4865 5.64544 21.2514 5.69244 21.0634 5.73945L20.2173 5.28819L20.5981 0.155172H26.0554V1.96019H22.4595L22.2762 3.93443C22.436 3.90623 22.6052 3.87802 22.7838 3.84982C22.9718 3.81222 23.2304 3.79341 23.5594 3.79341Z" fill="#BFCBD8"/>
<path d="M16.1118 9.23659C16.1118 8.80414 16.2293 8.5033 16.4644 8.33408C16.6994 8.15546 16.9861 8.06615 17.3246 8.06615C17.6536 8.06615 17.9356 8.15546 18.1707 8.33408C18.4057 8.5033 18.5232 8.80414 18.5232 9.23659C18.5232 9.65024 18.4057 9.95107 18.1707 10.1391C17.9356 10.3177 17.6536 10.407 17.3246 10.407C16.9861 10.407 16.6994 10.3177 16.4644 10.1391C16.2293 9.95107 16.1118 9.65024 16.1118 9.23659ZM16.1118 3.5536C16.1118 3.12114 16.2293 2.82031 16.4644 2.65109C16.6994 2.47247 16.9861 2.38316 17.3246 2.38316C17.6536 2.38316 17.9356 2.47247 18.1707 2.65109C18.4057 2.82031 18.5232 3.12114 18.5232 3.5536C18.5232 3.96725 18.4057 4.26809 18.1707 4.45611C17.9356 4.63473 17.6536 4.72404 17.3246 4.72404C16.9861 4.72404 16.6994 4.63473 16.4644 4.45611C16.2293 4.26809 16.1118 3.96725 16.1118 3.5536Z" fill="#BFCBD8"/>
<path d="M14.7826 5.18943C14.7826 5.99793 14.7168 6.72182 14.5851 7.36109C14.4629 8.00037 14.2608 8.54564 13.9788 8.99689C13.7061 9.43874 13.3442 9.77719 12.8929 10.0122C12.4511 10.2472 11.9058 10.3648 11.2571 10.3648C10.4486 10.3648 9.78586 10.1579 9.26879 9.74428C8.75173 9.33063 8.36628 8.73836 8.11245 7.96747C7.86802 7.19657 7.74581 6.27056 7.74581 5.18943C7.74581 4.0989 7.85862 3.16818 8.08425 2.39729C8.30988 1.6264 8.68122 1.03413 9.19829 0.620475C9.71535 0.206825 10.4016 0 11.2571 0C12.0656 0 12.7284 0.206825 13.2455 0.620475C13.7625 1.02472 14.148 1.617 14.4018 2.39729C14.6556 3.16818 14.7826 4.0989 14.7826 5.18943ZM9.86107 5.18943C9.86107 5.95092 9.90337 6.5902 9.98798 7.10726C10.0726 7.61492 10.2136 8.00037 10.411 8.2636C10.6179 8.51743 10.8999 8.64435 11.2571 8.64435C11.6144 8.64435 11.8917 8.51743 12.0891 8.2636C12.296 8.00977 12.4417 7.62903 12.5263 7.12136C12.6203 6.6043 12.6673 5.96032 12.6673 5.18943C12.6673 4.41854 12.6203 3.77926 12.5263 3.2716C12.4417 2.75453 12.296 2.36909 12.0891 2.11526C11.8917 1.85202 11.6144 1.72041 11.2571 1.72041C10.8999 1.72041 10.6179 1.85202 10.411 2.11526C10.2136 2.36909 10.0726 2.75453 9.98798 3.2716C9.90337 3.77926 9.86107 4.41854 9.86107 5.18943Z" fill="#BFCBD8"/>
<path d="M4.99201 10.2238H2.86265V4.39979C2.86265 4.23997 2.86265 4.04254 2.86265 3.80752C2.87205 3.57249 2.88145 3.32806 2.89085 3.07423C2.90025 2.8204 2.90965 2.59477 2.91905 2.39734C2.87205 2.45375 2.76864 2.55716 2.60882 2.70758C2.4584 2.8486 2.31738 2.97551 2.18577 3.08833L1.02942 4.01904L0 2.73579L3.24339 0.155172H4.99201V10.2238Z" fill="#BFCBD8"/>
</svg>
