<svg width="24" height="24" viewBox="0 0 24 24" fill="none" xmlns="http://www.w3.org/2000/svg">
<path fill-rule="evenodd" clip-rule="evenodd" d="M2.78571 3.21436C2.04689 3.21436 1.33834 3.50784 0.815916 4.03027C0.293494 4.5527 0 5.26125 0 6.00007V18.0001C0 18.7389 0.293494 19.4474 0.815916 19.9698C1.33834 20.4923 2.04689 20.7858 2.78571 20.7858H17.7857C18.5246 20.7858 19.2331 20.4923 19.7554 19.9698C20.2779 19.4474 20.5714 18.7389 20.5714 18.0001V16.9286H22.0714C22.583 16.9286 23.0734 16.7254 23.4351 16.3638C23.7969 16.0021 24 15.5116 24 15.0001V9.00007C24 8.48858 23.7969 7.99804 23.4351 7.63636C23.0734 7.27469 22.583 7.0715 22.0714 7.0715H20.5714V6.00007C20.5714 5.26125 20.2779 4.5527 19.7554 4.03027C19.2331 3.50784 18.5246 3.21436 17.7857 3.21436H2.78571ZM2.33114 5.54549C2.4517 5.42494 2.61521 5.35721 2.78571 5.35721H17.7857C17.9563 5.35721 18.1197 5.42494 18.2403 5.54549C18.3609 5.66606 18.4286 5.82957 18.4286 6.00007V8.14293C18.4286 8.73466 18.9082 9.21436 19.5 9.21436H21.8571V14.7858H19.5C18.9082 14.7858 18.4286 15.2655 18.4286 15.8572V18.0001C18.4286 18.1706 18.3609 18.334 18.2403 18.4547C18.1197 18.5752 17.9563 18.6429 17.7857 18.6429H2.78571C2.61521 18.6429 2.4517 18.5752 2.33114 18.4547C2.21059 18.334 2.14286 18.1706 2.14286 18.0001V6.00007C2.14286 5.82957 2.21059 5.66606 2.33114 5.54549ZM6.85714 8.5715C6.85714 7.86142 6.2815 7.28578 5.57143 7.28578C4.86135 7.28578 4.28571 7.86142 4.28571 8.5715V15.4286C4.28571 16.1387 4.86135 16.7144 5.57143 16.7144C6.2815 16.7144 6.85714 16.1387 6.85714 15.4286V8.5715ZM11.5714 8.5715C11.5714 7.86142 10.9958 7.28578 10.2857 7.28578C9.57564 7.28578 9 7.86142 9 8.5715V15.4286C9 16.1387 9.57564 16.7144 10.2857 16.7144C10.9958 16.7144 11.5714 16.1387 11.5714 15.4286V8.5715ZM15 7.28578C15.7101 7.28578 16.2857 7.86142 16.2857 8.5715V15.4286C16.2857 16.1387 15.7101 16.7144 15 16.7144C14.2899 16.7144 13.7143 16.1387 13.7143 15.4286V8.5715C13.7143 7.86142 14.2899 7.28578 15 7.28578Z" fill="#BFCBD8"/>
</svg>
