<svg width="42" height="42" viewBox="0 0 42 42" fill="none" xmlns="http://www.w3.org/2000/svg">
<path d="M1.3125 38.9375H40.6875" stroke="#BFCBD8" stroke-width="1.5" stroke-linecap="round" stroke-linejoin="round"/>
<path d="M15.8743 29.3129L5.30957 16.2456" stroke="#BFCBD8" stroke-width="1.5" stroke-linecap="round" stroke-linejoin="round"/>
<path d="M12.9502 13.1703L23.8807 26.6873" stroke="#BFCBD8" stroke-width="1.5" stroke-linecap="round" stroke-linejoin="round"/>
<path d="M7.4375 16.625C10.8203 16.625 13.5625 13.8828 13.5625 10.5C13.5625 7.11725 10.8203 4.375 7.4375 4.375C4.05475 4.375 1.3125 7.11725 1.3125 10.5C1.3125 13.8828 4.05475 16.625 7.4375 16.625Z" stroke="#BFCBD8" stroke-width="1.5" stroke-linecap="round" stroke-linejoin="round"/>
<path d="M23.2119 13.125H12.9727" stroke="#BFCBD8" stroke-width="1.5" stroke-linecap="round" stroke-linejoin="round"/>
<path d="M12.4653 7H22.5768" stroke="#BFCBD8" stroke-width="1.5" stroke-linecap="round" stroke-linejoin="round"/>
<path d="M27.125 14.875C30.0246 14.875 32.375 12.5245 32.375 9.625C32.375 6.72551 30.0246 4.375 27.125 4.375C24.2254 4.375 21.875 6.72551 21.875 9.625C21.875 12.5245 24.2254 14.875 27.125 14.875Z" stroke="#BFCBD8" stroke-width="1.5" stroke-linecap="round" stroke-linejoin="round"/>
<path d="M30.625 38.9375H13.125L16.2628 27.9562C16.3673 27.5908 16.5879 27.2694 16.8913 27.0405C17.1947 26.8116 17.5644 26.6877 17.9445 26.6875H25.8055C26.1856 26.6877 26.5552 26.8116 26.8587 27.0405C27.1621 27.2694 27.3828 27.5908 27.4872 27.9562L30.625 38.9375Z" stroke="#BFCBD8" stroke-width="1.5" stroke-linecap="round" stroke-linejoin="round"/>
<path d="M21.875 33.0312C21.5126 33.0312 21.2188 32.7374 21.2188 32.375C21.2188 32.0126 21.5126 31.7188 21.875 31.7188" stroke="#BFCBD8" stroke-width="1.5"/>
<path d="M21.875 33.0312C22.2374 33.0312 22.5312 32.7374 22.5312 32.375C22.5312 32.0126 22.2374 31.7188 21.875 31.7188" stroke="#BFCBD8" stroke-width="1.5"/>
<path d="M31.1411 6.244L33.6874 3.0625H38.9374L40.6874 4.8125" stroke="#BFCBD8" stroke-width="1.5" stroke-linecap="round" stroke-linejoin="round"/>
<path d="M31.1411 13.0062L33.6874 16.1877H38.9374L40.6874 14.4377" stroke="#BFCBD8" stroke-width="1.5" stroke-linecap="round" stroke-linejoin="round"/>
</svg>
