<svg width="42" height="42" viewBox="0 0 42 42" fill="none" xmlns="http://www.w3.org/2000/svg">
<g clip-path="url(#clip0_443_1680)">
<path d="M17.0625 18.3715C17.0625 20.1119 17.7539 21.7811 18.9846 23.0118C20.2153 24.2426 21.8845 24.934 23.625 24.934C25.3655 24.934 27.0347 24.2426 28.2654 23.0118C29.4961 21.7811 30.1875 20.1119 30.1875 18.3715C30.1875 16.631 29.4961 14.9618 28.2654 13.7311C27.0347 12.5004 25.3655 11.809 23.625 11.809C21.8845 11.809 20.2153 12.5004 18.9846 13.7311C17.7539 14.9618 17.0625 16.631 17.0625 18.3715Z" stroke="#BFCBD8" stroke-width="1.5" stroke-linecap="round" stroke-linejoin="round"/>
<path d="M32.8125 5.24646C32.8125 6.29075 33.2273 7.29227 33.9658 8.03069C34.7042 8.76912 35.7057 9.18396 36.75 9.18396C37.7943 9.18396 38.7958 8.76912 39.5342 8.03069C40.2727 7.29227 40.6875 6.29075 40.6875 5.24646C40.6875 4.20217 40.2727 3.20065 39.5342 2.46223C38.7958 1.7238 37.7943 1.30896 36.75 1.30896C35.7057 1.30896 34.7042 1.7238 33.9658 2.46223C33.2273 3.20065 32.8125 4.20217 32.8125 5.24646Z" stroke="#BFCBD8" stroke-width="1.5" stroke-linecap="round" stroke-linejoin="round"/>
<path d="M32.8125 27.559C32.8125 28.6032 33.2273 29.6048 33.9658 30.3432C34.7042 31.0816 35.7057 31.4965 36.75 31.4965C37.7943 31.4965 38.7958 31.0816 39.5342 30.3432C40.2727 29.6048 40.6875 28.6032 40.6875 27.559C40.6875 26.5147 40.2727 25.5132 39.5342 24.7747C38.7958 24.0363 37.7943 23.6215 36.75 23.6215C35.7057 23.6215 34.7042 24.0363 33.9658 24.7747C33.2273 25.5132 32.8125 26.5147 32.8125 27.559Z" stroke="#BFCBD8" stroke-width="1.5" stroke-linecap="round" stroke-linejoin="round"/>
<path d="M19.6875 36.7465C19.6875 37.7907 20.1023 38.7923 20.8408 39.5307C21.5792 40.2691 22.5807 40.684 23.625 40.684C24.6693 40.684 25.6708 40.2691 26.4092 39.5307C27.1477 38.7923 27.5625 37.7907 27.5625 36.7465C27.5625 35.7022 27.1477 34.7007 26.4092 33.9622C25.6708 33.2238 24.6693 32.809 23.625 32.809C22.5807 32.809 21.5792 33.2238 20.8408 33.9622C20.1023 34.7007 19.6875 35.7022 19.6875 36.7465Z" stroke="#BFCBD8" stroke-width="1.5" stroke-linecap="round" stroke-linejoin="round"/>
<path d="M1.3125 36.7465C1.3125 37.2635 1.41435 37.7756 1.61222 38.2533C1.8101 38.731 2.10014 39.1651 2.46577 39.5307C2.8314 39.8963 3.26546 40.1864 3.74318 40.3842C4.2209 40.5821 4.73292 40.684 5.25 40.684C5.76708 40.684 6.2791 40.5821 6.75682 40.3842C7.23454 40.1864 7.6686 39.8963 8.03423 39.5307C8.39986 39.1651 8.6899 38.731 8.88778 38.2533C9.08565 37.7756 9.1875 37.2635 9.1875 36.7465C9.1875 36.2294 9.08565 35.7174 8.88778 35.2396C8.6899 34.7619 8.39986 34.3279 8.03423 33.9622C7.6686 33.5966 7.23454 33.3066 6.75682 33.1087C6.2791 32.9108 5.76708 32.809 5.25 32.809C4.73292 32.809 4.2209 32.9108 3.74318 33.1087C3.26546 33.3066 2.8314 33.5966 2.46577 33.9622C2.10014 34.3279 1.8101 34.7619 1.61222 35.2396C1.41435 35.7174 1.3125 36.2294 1.3125 36.7465Z" stroke="#BFCBD8" stroke-width="1.5" stroke-linecap="round" stroke-linejoin="round"/>
<path d="M2.625 9.18396C2.625 10.2282 3.03984 11.2298 3.77827 11.9682C4.51669 12.7066 5.51821 13.1215 6.5625 13.1215C7.60679 13.1215 8.60831 12.7066 9.34673 11.9682C10.0852 11.2298 10.5 10.2282 10.5 9.18396C10.5 8.13967 10.0852 7.13815 9.34673 6.39973C8.60831 5.6613 7.60679 5.24646 6.5625 5.24646C5.51821 5.24646 4.51669 5.6613 3.77827 6.39973C3.03984 7.13815 2.625 8.13967 2.625 9.18396Z" stroke="#BFCBD8" stroke-width="1.5" stroke-linecap="round" stroke-linejoin="round"/>
<path d="M28.2642 13.7341L33.9692 8.02905" stroke="#BFCBD8" stroke-width="1.5" stroke-linecap="round" stroke-linejoin="round"/>
<path d="M29.3896 21.511L33.3884 25.5097" stroke="#BFCBD8" stroke-width="1.5" stroke-linecap="round" stroke-linejoin="round"/>
<path d="M23.625 24.934V32.809" stroke="#BFCBD8" stroke-width="1.5" stroke-linecap="round" stroke-linejoin="round"/>
<path d="M18.9895 23.0072L8.03271 33.964" stroke="#BFCBD8" stroke-width="1.5" stroke-linecap="round" stroke-linejoin="round"/>
<path d="M17.6843 15.6112L10 11" stroke="#BFCBD8" stroke-width="1.5" stroke-linecap="round" stroke-linejoin="round"/>
</g>
<defs>
<clipPath id="clip0_443_1680">
<rect width="42" height="42" fill="white"/>
</clipPath>
</defs>
</svg>
