<svg width="42" height="42" viewBox="0 0 42 42" fill="none" xmlns="http://www.w3.org/2000/svg">
<path fill-rule="evenodd" clip-rule="evenodd" d="M11.1512 9.38712C9.49558 9.57792 7.73099 10.1942 6.35117 11.0635C4.85332 12.0072 3.52436 13.336 2.57957 14.835C1.67724 16.2665 1.05539 18.0934 0.883566 19.818C0.827874 20.3769 0.827874 21.6231 0.883566 22.1821C1.09583 24.3124 1.8817 26.2994 3.21969 28.0891C3.69983 28.7314 4.78318 29.8151 5.42356 30.2939C7.18205 31.6085 9.10011 32.3804 11.1884 32.6137C12.0249 32.7072 29.9995 32.7064 30.8075 32.6129C32.9363 32.3664 34.8142 31.6116 36.5769 30.2939C37.2173 29.8151 38.3006 28.7314 38.7808 28.0891C39.9149 26.5721 40.6185 24.9977 40.9654 23.2005C41.1085 22.4591 41.1602 21.8743 41.1602 20.9972C41.1602 19.8364 41.0468 18.9577 40.7634 17.9243C40.2137 15.919 39.2322 14.2382 37.7391 12.7451C36.0813 11.0874 34.147 10.0358 31.8718 9.55537C30.7474 9.31799 31.0609 9.32446 20.9372 9.32937C13.7036 9.33286 11.5097 9.34579 11.1512 9.38712ZM11.2171 10.9017C8.27263 11.2798 5.6454 12.9326 3.97783 15.456C3.16774 16.6819 2.55806 18.3855 2.39649 19.8749C2.33958 20.3992 2.33958 21.6009 2.39649 22.1252C2.59528 23.9574 3.37648 25.8545 4.53601 27.321C4.91481 27.8001 5.62167 28.5121 6.11122 28.9076C7.61562 30.1232 9.36358 30.8636 11.2966 31.1041C12.0143 31.1934 29.9862 31.1934 30.7038 31.1041C33.7179 30.7291 36.3281 29.1027 38.0221 26.544C38.6136 25.6505 39.1694 24.3345 39.4144 23.247C39.6486 22.2078 39.716 20.8098 39.5834 19.7388C39.1329 16.099 36.7328 12.9686 33.3266 11.5782C32.4579 11.2236 31.652 11.0139 30.7038 10.8959C30.0133 10.81 11.8895 10.8154 11.2171 10.9017ZM12.6002 13.5243C10.2154 13.7383 8.05922 15.1003 6.81611 17.178C5.87552 18.7501 5.55224 20.6871 5.92399 22.5235C6.50833 25.4105 8.86323 27.7659 11.7473 28.3482C13.6027 28.7228 15.5915 28.3869 17.1292 27.4391C19.1 26.2246 20.3934 24.2702 20.7097 22.029C20.7783 21.5433 20.7783 20.4568 20.7097 19.971C20.3935 17.7307 19.0976 15.7725 17.1292 14.5607C15.8508 13.7736 14.1525 13.385 12.6002 13.5243ZM12.8312 15.0189C11.9246 15.1068 11.1856 15.325 10.4262 15.729C9.88181 16.0185 9.45707 16.3434 8.97613 16.8381C8.14339 17.6946 7.64296 18.6492 7.38878 19.866C7.31549 20.2169 7.29667 20.4487 7.29667 21C7.29667 21.5514 7.31549 21.7832 7.38878 22.134C7.64296 23.3509 8.14339 24.3054 8.97613 25.1619C9.76241 25.9707 10.609 26.4757 11.6762 26.7727C12.2431 26.9305 12.6197 26.9792 13.2722 26.9792C14.3342 26.9792 15.1853 26.7674 16.1182 26.2711C17.1701 25.7116 18.0962 24.7542 18.6405 23.6638C18.861 23.2222 19.0928 22.5244 19.1806 22.0382C19.2746 21.5179 19.2746 20.4822 19.1806 19.9618C19.0387 19.1759 18.701 18.3459 18.236 17.64C17.9458 17.1995 17.2457 16.4724 16.8087 16.1578C16.0596 15.6184 15.1305 15.2302 14.2382 15.0838C13.9299 15.0332 13.0855 14.9943 12.8312 15.0189Z" fill="#BFCBD8"/>
</svg>
