<svg width="42" height="42" viewBox="0 0 42 42" fill="none" xmlns="http://www.w3.org/2000/svg">
<path d="M12 8.84975V32.7499C12 33.1043 12.0939 33.4526 12.2726 33.7609C12.4513 34.0692 12.7087 34.3269 13.0196 34.5089C13.3306 34.6909 13.6844 34.7909 14.0467 34.7992C14.409 34.8076 14.7673 34.7239 15.0866 34.5564L37.8944 22.6063C38.2285 22.4311 38.5078 22.1706 38.7025 21.8525C38.8972 21.5344 39 21.1706 39 20.7998C39 20.4291 38.8972 20.0652 38.7025 19.7471C38.5078 19.429 38.2285 19.1685 37.8944 18.9933L15.0866 7.04323C14.7673 6.87572 14.409 6.79205 14.0467 6.80037C13.6844 6.80869 13.3306 6.90873 13.0196 7.09072C12.7087 7.2727 12.4513 7.53042 12.2726 7.83872C12.0939 8.14702 12 8.49536 12 8.84975Z" stroke="#EFF6FF" stroke-width="2" stroke-linecap="round" stroke-linejoin="round"/>
</svg>
