<svg width="16" height="16" viewBox="0 0 16 16" fill="none" xmlns="http://www.w3.org/2000/svg">
<path d="M3.61355 10.94C3.70673 11.0314 3.82467 11.0934 3.95276 11.1183C4.08085 11.1433 4.21345 11.1301 4.33411 11.0804C4.45478 11.0307 4.55821 10.9467 4.63159 10.8388C4.70496 10.7309 4.74505 10.6038 4.74688 10.4733V8.28C4.74688 8.2358 4.76444 8.1934 4.7957 8.16215C4.82695 8.13089 4.86935 8.11333 4.91355 8.11333H13.9469C13.9911 8.11333 14.0335 8.13089 14.0647 8.16215C14.096 8.1934 14.1135 8.2358 14.1135 8.28V11.7467C14.1135 11.9677 14.2013 12.1796 14.3576 12.3359C14.5139 12.4922 14.7259 12.58 14.9469 12.58C15.1679 12.58 15.3799 12.4922 15.5361 12.3359C15.6924 12.1796 15.7802 11.9677 15.7802 11.7467V7.28C15.7802 7.05898 15.6924 6.84702 15.5361 6.69074C15.3799 6.53446 15.1679 6.44666 14.9469 6.44666H4.94688C4.90321 6.44501 4.86177 6.42693 4.83086 6.39602C4.79995 6.36511 4.78187 6.32367 4.78022 6.28V4.08C4.78011 3.94914 4.74149 3.8212 4.66918 3.71214C4.59686 3.60307 4.49405 3.5177 4.37355 3.46666C4.25151 3.41644 4.11731 3.40357 3.98795 3.42968C3.85859 3.45579 3.73989 3.51971 3.64688 3.61333L0.420215 6.80666C0.357223 6.86841 0.307109 6.94204 0.272778 7.02329C0.238447 7.10454 0.220581 7.19179 0.220215 7.28C0.22272 7.45584 0.294605 7.62358 0.420215 7.74666L3.61355 10.94Z" fill="#BFCBD8"/>
</svg>
