<svg width="42" height="42" viewBox="0 0 42 42" fill="none" xmlns="http://www.w3.org/2000/svg">
<path d="M18.3682 25.7425C18.3682 26.4405 18.6455 27.11 19.1391 27.6036C19.6327 28.0972 20.3021 28.3745 21.0002 28.3745C21.6982 28.3745 22.3677 28.0972 22.8613 27.6036C23.3549 27.11 23.6322 26.4405 23.6322 25.7425C23.6322 25.0444 23.3549 24.375 22.8613 23.8814C22.3677 23.3878 21.6982 23.1105 21.0002 23.1105C20.3021 23.1105 19.6327 23.3878 19.1391 23.8814C18.6455 24.375 18.3682 25.0444 18.3682 25.7425Z" stroke="#BFCBD8" stroke-width="1.5" stroke-linecap="round" stroke-linejoin="round"/>
<path d="M18.3682 14.9677C18.3682 15.6657 18.6455 16.3352 19.1391 16.8288C19.6327 17.3224 20.3021 17.5997 21.0002 17.5997C21.6982 17.5997 22.3677 17.3224 22.8613 16.8288C23.3549 16.3352 23.6322 15.6657 23.6322 14.9677C23.6322 14.2696 23.3549 13.6002 22.8613 13.1066C22.3677 12.613 21.6982 12.3357 21.0002 12.3357C20.3021 12.3357 19.6327 12.613 19.1391 13.1066C18.6455 13.6002 18.3682 14.2696 18.3682 14.9677Z" stroke="#BFCBD8" stroke-width="1.5" stroke-linecap="round" stroke-linejoin="round"/>
<path d="M21 17.5996V23.1107" stroke="#BFCBD8" stroke-width="1.5" stroke-linecap="round" stroke-linejoin="round"/>
<path d="M7.96777 20.356C7.96777 22.0677 8.30491 23.7626 8.95993 25.3439C9.61495 26.9253 10.575 28.3621 11.7853 29.5725C12.9957 30.7828 14.4325 31.7428 16.0139 32.3979C17.5952 33.0529 19.2901 33.39 21.0018 33.39C22.7134 33.39 24.4083 33.0529 25.9897 32.3979C27.571 31.7428 29.0079 30.7828 30.2182 29.5725C31.4285 28.3621 32.3886 26.9253 33.0436 25.3439C33.6986 23.7626 34.0358 22.0677 34.0358 20.356C34.0358 16.8992 32.6626 13.5839 30.2182 11.1396C27.7739 8.69524 24.4586 7.32202 21.0018 7.32202C17.5449 7.32202 14.2297 8.69524 11.7853 11.1396C9.34099 13.5839 7.96777 16.8992 7.96777 20.356Z" stroke="#BFCBD8" stroke-width="1.5" stroke-linecap="round" stroke-linejoin="round"/>
<path d="M35.2153 5.50195C35.2153 5.84391 35.2827 6.18252 35.4136 6.49846C35.5444 6.81439 35.7362 7.10145 35.978 7.34326C36.2198 7.58506 36.5069 7.77687 36.8228 7.90773C37.1388 8.0386 37.4774 8.10595 37.8193 8.10595C38.1613 8.10595 38.4999 8.0386 38.8158 7.90773C39.1318 7.77687 39.4188 7.58506 39.6606 7.34326C39.9024 7.10145 40.0943 6.81439 40.2251 6.49846C40.356 6.18252 40.4233 5.84391 40.4233 5.50195C40.4233 5.15999 40.356 4.82137 40.2251 4.50544C40.0943 4.18951 39.9024 3.90245 39.6606 3.66064C39.4188 3.41884 39.1318 3.22703 38.8158 3.09617C38.4999 2.9653 38.1613 2.89795 37.8193 2.89795C37.4774 2.89795 37.1388 2.9653 36.8228 3.09617C36.5069 3.22703 36.2198 3.41884 35.978 3.66064C35.7362 3.90245 35.5444 4.18951 35.4136 4.50544C35.2827 4.82137 35.2153 5.15999 35.2153 5.50195Z" stroke="#BFCBD8" stroke-width="1.5" stroke-linecap="round" stroke-linejoin="round"/>
<path d="M6.78466 5.50195C6.78466 6.19257 6.51031 6.85491 6.02197 7.34326C5.53362 7.8316 4.87128 8.10595 4.18066 8.10595C3.49004 8.10595 2.8277 7.8316 2.33935 7.34326C1.85101 6.85491 1.57666 6.19257 1.57666 5.50195C1.57666 4.81133 1.85101 4.14899 2.33935 3.66064C2.8277 3.1723 3.49004 2.89795 4.18066 2.89795C4.87128 2.89795 5.53362 3.1723 6.02197 3.66064C6.51031 4.14899 6.78466 4.81133 6.78466 5.50195Z" stroke="#BFCBD8" stroke-width="1.5" stroke-linecap="round" stroke-linejoin="round"/>
<path d="M14.2188 31.5L11.5636 35.2551L1.61328 35.255" stroke="#BFCBD8" stroke-width="1.5" stroke-linecap="round" stroke-linejoin="round"/>
<path d="M28.3281 31.1992L31.1815 35.255L40.4246 35.2552" stroke="#BFCBD8" stroke-width="1.5" stroke-linecap="round" stroke-linejoin="round"/>
<path d="M14.164 9.21484L11.5619 5.50122H6.78223" stroke="#BFCBD8" stroke-width="1.5" stroke-linecap="round" stroke-linejoin="round"/>
<path d="M27.8359 9.2422L30.4363 5.50122H35.216" stroke="#BFCBD8" stroke-width="1.5" stroke-linecap="round" stroke-linejoin="round"/>
<path d="M36.5757 31.4077L40.4231 35.2551L36.5757 39.1023" stroke="#BFCBD8" stroke-width="1.5" stroke-linecap="round" stroke-linejoin="round"/>
<path d="M5.4245 39.1023L1.57715 35.2551L5.4245 31.4077" stroke="#BFCBD8" stroke-width="1.5" stroke-linecap="round" stroke-linejoin="round"/>
</svg>
