<svg width="42" height="42" viewBox="0 0 42 42" fill="none" xmlns="http://www.w3.org/2000/svg">
<g clip-path="url(#clip0_443_1689)">
<path d="M1.3125 38.0625H18.375" stroke="#BFCBD8" stroke-width="1.5" stroke-linecap="round" stroke-linejoin="round"/>
<path d="M23.625 38.0625H40.6875" stroke="#BFCBD8" stroke-width="1.5" stroke-linecap="round" stroke-linejoin="round"/>
<path d="M21 30.1875V35.4375" stroke="#BFCBD8" stroke-width="1.5" stroke-linecap="round" stroke-linejoin="round"/>
<path d="M10.5 1.3125H31.5C31.5 1.3125 34.125 1.3125 34.125 3.9375V17.0625C34.125 17.0625 34.125 19.6875 31.5 19.6875H10.5C10.5 19.6875 7.875 19.6875 7.875 17.0625V3.9375C7.875 3.9375 7.875 1.3125 10.5 1.3125Z" stroke="#BFCBD8" stroke-width="1.5" stroke-linecap="round" stroke-linejoin="round"/>
<path d="M21 19.6875V24.9375" stroke="#BFCBD8" stroke-width="1.5" stroke-linecap="round" stroke-linejoin="round"/>
<path d="M17.0625 24.9375H24.9375" stroke="#BFCBD8" stroke-width="1.5" stroke-linecap="round" stroke-linejoin="round"/>
<path d="M7.875 13.5625H34.125" stroke="#BFCBD8" stroke-width="1.5" stroke-linecap="round" stroke-linejoin="round"/>
<path d="M18.375 38.0625C18.375 38.7587 18.6516 39.4264 19.1438 39.9187C19.6361 40.4109 20.3038 40.6875 21 40.6875C21.6962 40.6875 22.3639 40.4109 22.8562 39.9187C23.3484 39.4264 23.625 38.7587 23.625 38.0625C23.625 37.3663 23.3484 36.6986 22.8562 36.2063C22.3639 35.7141 21.6962 35.4375 21 35.4375C20.3038 35.4375 19.6361 35.7141 19.1438 36.2063C18.6516 36.6986 18.375 37.3663 18.375 38.0625Z" stroke="#BFCBD8" stroke-width="1.5" stroke-linecap="round" stroke-linejoin="round"/>
</g>
<defs>
<clipPath id="clip0_443_1689">
<rect width="42" height="42" fill="white"/>
</clipPath>
</defs>
</svg>
