<svg width="24" height="24" viewBox="0 0 24 24" fill="none" xmlns="http://www.w3.org/2000/svg">
<g clip-path="url(#clip0_364_381)">
<path fill-rule="evenodd" clip-rule="evenodd" d="M12 12.8571C8.68625 12.8571 5.99997 10.1709 5.99997 6.85715V3.42858C5.99997 3.20124 6.09027 2.98322 6.25102 2.82249C6.68762 2.40191 7.22013 2.07446 7.75949 1.80479C8.72146 1.3238 10.1376 0.857147 12 0.857147C13.8623 0.857147 15.2785 1.3238 16.2404 1.80479C16.7832 2.07618 17.305 2.40623 17.749 2.82249C17.9096 2.98322 18 3.20124 18 3.42858V6.85715C18 10.1709 15.3137 12.8571 12 12.8571ZM0.919796 21.9559C2.72751 17.621 7.00651 14.5714 11.9998 14.5714C16.993 14.5714 21.272 17.621 23.0797 21.9559C23.1901 22.2204 23.1608 22.5226 23.0019 22.7611C22.843 22.9995 22.5752 23.1429 22.2886 23.1429H1.71091C1.42427 23.1429 1.15661 22.9995 0.997649 22.7611C0.838688 22.5226 0.809473 22.2204 0.919796 21.9559Z" fill="#B9BFCA"/>
</g>
<defs>
<clipPath id="clip0_364_381">
<rect width="24" height="24" fill="white"/>
</clipPath>
</defs>
</svg>
