<svg width="16" height="16" viewBox="0 0 16 16" fill="none" xmlns="http://www.w3.org/2000/svg">
<path d="M10.9999 15.5399C11.1767 15.5399 11.3463 15.4696 11.4713 15.3446C11.5963 15.2196 11.6665 15.05 11.6665 14.8732V7.70655C11.6665 7.66235 11.6841 7.61995 11.7154 7.5887C11.7466 7.55744 11.789 7.53988 11.8332 7.53988H13.9999C14.1334 7.54001 14.2639 7.50005 14.3744 7.42516C14.485 7.35028 14.5705 7.24393 14.6199 7.11988C14.6699 6.99571 14.6814 6.85936 14.6529 6.72856C14.6243 6.59776 14.5571 6.47859 14.4599 6.38655L8.45988 0.666549C8.33589 0.548356 8.17117 0.482422 7.99988 0.482422C7.82858 0.482422 7.66386 0.548356 7.53988 0.666549L1.53988 6.40655C1.44266 6.49859 1.3754 6.61776 1.34687 6.74856C1.31833 6.87936 1.32983 7.01571 1.37988 7.13988C1.42928 7.26393 1.51479 7.37028 1.62533 7.44516C1.73587 7.52005 1.86636 7.56001 1.99988 7.55988H4.16654C4.18843 7.55988 4.2101 7.56419 4.23032 7.57257C4.25054 7.58094 4.26892 7.59322 4.28439 7.6087C4.29987 7.62417 4.31215 7.64255 4.32052 7.66277C4.3289 7.68299 4.33321 7.70466 4.33321 7.72655V14.8732C4.33321 15.05 4.40345 15.2196 4.52847 15.3446C4.65349 15.4696 4.82306 15.5399 4.99988 15.5399H10.9999Z" fill="#BFCBD8"/>
</svg>
