<svg width="42" height="42" viewBox="0 0 42 42" fill="none" xmlns="http://www.w3.org/2000/svg">
<g clip-path="url(#clip0_443_1686)">
<path d="M17.0645 6.56287H19.6895" stroke="#BFCBD8" stroke-width="1.5" stroke-linecap="round" stroke-linejoin="round"/>
<path d="M24.9395 6.56287H27.5645" stroke="#BFCBD8" stroke-width="1.5" stroke-linecap="round" stroke-linejoin="round"/>
<path d="M17.0645 17.0629H19.6895" stroke="#BFCBD8" stroke-width="1.5" stroke-linecap="round" stroke-linejoin="round"/>
<path d="M24.9395 17.0629H27.5645" stroke="#BFCBD8" stroke-width="1.5" stroke-linecap="round" stroke-linejoin="round"/>
<path d="M7.87695 32.8129H14.4395V22.3129" stroke="#BFCBD8" stroke-width="1.5" stroke-linecap="round" stroke-linejoin="round"/>
<path d="M32.8145 6.56286C32.8145 7.95525 32.2613 9.29062 31.2768 10.2752C30.2922 11.2597 28.9568 11.8129 27.5645 11.8129H6.56446C5.17207 11.8129 3.83672 11.2597 2.85215 10.2752C1.86758 9.29062 1.31445 7.95525 1.31445 6.56286C1.31445 5.17047 1.86758 3.83512 2.85215 2.85055C3.83672 1.86598 5.17207 1.31287 6.56446 1.31287H27.5645C28.9568 1.31287 30.2922 1.86598 31.2768 2.85055C32.2613 3.83512 32.8145 5.17047 32.8145 6.56286Z" stroke="#BFCBD8" stroke-width="1.5" stroke-linecap="round" stroke-linejoin="round"/>
<path d="M23.6252 22.3128H6.56446C5.17207 22.3128 3.83672 21.7598 2.85215 20.7752C1.86758 19.7907 1.31445 18.4553 1.31445 17.0629C1.31445 15.6705 1.86758 14.3351 2.85215 13.3506C3.83672 12.366 5.17207 11.8129 6.56446 11.8129H27.5645C28.4866 11.8123 29.3925 12.0546 30.1914 12.5154C30.9901 12.9762 31.6534 13.6393 32.1145 14.4379" stroke="#BFCBD8" stroke-width="1.5" stroke-linecap="round" stroke-linejoin="round"/>
<path d="M23.627 35.4379C25.8015 35.4379 27.5645 33.6751 27.5645 31.5004C27.5645 29.3258 25.8015 27.5629 23.627 27.5629C21.4522 27.5629 19.6895 29.3258 19.6895 31.5004C19.6895 33.6751 21.4522 35.4379 23.627 35.4379Z" stroke="#BFCBD8" stroke-width="1.5" stroke-linecap="round" stroke-linejoin="round"/>
<path d="M36.752 40.6879C38.9265 40.6879 40.6895 38.9251 40.6895 36.7504C40.6895 34.5758 38.9265 32.8129 36.752 32.8129C34.5772 32.8129 32.8145 34.5758 32.8145 36.7504C32.8145 38.9251 34.5772 40.6879 36.752 40.6879Z" stroke="#BFCBD8" stroke-width="1.5" stroke-linecap="round" stroke-linejoin="round"/>
<path d="M36.752 27.5629C38.9265 27.5629 40.6895 25.8001 40.6895 23.6254C40.6895 21.4508 38.9265 19.6879 36.752 19.6879C34.5772 19.6879 32.8145 21.4508 32.8145 23.6254C32.8145 25.8001 34.5772 27.5629 36.752 27.5629Z" stroke="#BFCBD8" stroke-width="1.5" stroke-linecap="round" stroke-linejoin="round"/>
<path d="M26.9956 29.4792L33.3831 25.6467" stroke="#BFCBD8" stroke-width="1.5" stroke-linecap="round" stroke-linejoin="round"/>
<path d="M27.2808 32.9615L33.0978 35.289" stroke="#BFCBD8" stroke-width="1.5" stroke-linecap="round" stroke-linejoin="round"/>
<path d="M7.875 7.21912C7.51256 7.21912 7.21875 6.92531 7.21875 6.56287C7.21875 6.20044 7.51256 5.90662 7.875 5.90662" stroke="#BFCBD8" stroke-width="1.5"/>
<path d="M7.875 7.21912C8.23744 7.21912 8.53125 6.92531 8.53125 6.56287C8.53125 6.20044 8.23744 5.90662 7.875 5.90662" stroke="#BFCBD8" stroke-width="1.5"/>
<path d="M7.875 17.719C7.51256 17.719 7.21875 17.4253 7.21875 17.0629C7.21875 16.7004 7.51256 16.4066 7.875 16.4066" stroke="#BFCBD8" stroke-width="1.5"/>
<path d="M7.875 17.719C8.23744 17.719 8.53125 17.4253 8.53125 17.0629C8.53125 16.7004 8.23744 16.4066 7.875 16.4066" stroke="#BFCBD8" stroke-width="1.5"/>
<path d="M1.97071 32.8129C1.60827 32.8129 1.31445 32.5192 1.31445 32.1566C1.31445 31.7942 1.60827 31.5004 1.97071 31.5004" stroke="#BFCBD8" stroke-width="1.5"/>
<path d="M1.9707 32.8129C2.33313 32.8129 2.62695 32.5192 2.62695 32.1566C2.62695 31.7942 2.33313 31.5004 1.9707 31.5004" stroke="#BFCBD8" stroke-width="1.5"/>
</g>
<defs>
<clipPath id="clip0_443_1686">
<rect width="42" height="42" fill="white"/>
</clipPath>
</defs>
</svg>
