<svg width="42" height="42" viewBox="0 0 42 42" fill="none" xmlns="http://www.w3.org/2000/svg">
<g clip-path="url(#clip0_443_1620)">
<path d="M1.3125 21C1.3125 26.2214 3.38671 31.229 7.07884 34.9212C10.771 38.6133 15.7786 40.6875 21 40.6875C26.2214 40.6875 31.229 38.6133 34.9212 34.9212C38.6133 31.229 40.6875 26.2214 40.6875 21C40.6875 15.7786 38.6133 10.771 34.9212 7.07884C31.229 3.38671 26.2214 1.3125 21 1.3125C15.7786 1.3125 10.771 3.38671 7.07884 7.07884C3.38671 10.771 1.3125 15.7786 1.3125 21Z" stroke="#BFCBD8" stroke-width="1.5" stroke-linecap="round" stroke-linejoin="round"/>
<path d="M18.375 19.6875C18.375 20.3837 18.6516 21.0514 19.1438 21.5437C19.6361 22.0359 20.3038 22.3125 21 22.3125C21.6962 22.3125 22.3639 22.0359 22.8562 21.5437C23.3484 21.0514 23.625 20.3837 23.625 19.6875C23.625 18.9913 23.3484 18.3236 22.8562 17.8313C22.3639 17.3391 21.6962 17.0625 21 17.0625C20.3038 17.0625 19.6361 17.3391 19.1438 17.8313C18.6516 18.3236 18.375 18.9913 18.375 19.6875Z" stroke="#BFCBD8" stroke-width="1.5" stroke-linecap="round" stroke-linejoin="round"/>
<path d="M28.875 30.1875C28.875 30.8837 28.5984 31.5514 28.1062 32.0437C27.6139 32.5359 26.9462 32.8125 26.25 32.8125H15.75C15.0538 32.8125 14.3861 32.5359 13.8938 32.0437C13.4016 31.5514 13.125 30.8837 13.125 30.1875C13.125 29.4913 13.4016 28.8236 13.8938 28.3313C14.3861 27.8391 15.0538 27.5625 15.75 27.5625H26.25C26.9462 27.5625 27.6139 27.8391 28.1062 28.3313C28.5984 28.8236 28.875 29.4913 28.875 30.1875Z" stroke="#BFCBD8" stroke-width="1.5" stroke-linecap="round" stroke-linejoin="round"/>
<path d="M16.0615 6.12146L16.9593 8.58721" stroke="#BFCBD8" stroke-width="1.5" stroke-linecap="round" stroke-linejoin="round"/>
<path d="M8.49609 12.4688L10.7693 13.7812" stroke="#BFCBD8" stroke-width="1.5" stroke-linecap="round" stroke-linejoin="round"/>
<path d="M6.78125 22.1953L9.36775 21.7385" stroke="#BFCBD8" stroke-width="1.5" stroke-linecap="round" stroke-linejoin="round"/>
<path d="M25.9383 6.12146L25.0405 8.58721" stroke="#BFCBD8" stroke-width="1.5" stroke-linecap="round" stroke-linejoin="round"/>
<path d="M33.5039 12.4688L23.2734 18.375" stroke="#BFCBD8" stroke-width="1.5" stroke-linecap="round" stroke-linejoin="round"/>
<path d="M35.2188 22.1953L32.6323 21.7385" stroke="#BFCBD8" stroke-width="1.5" stroke-linecap="round" stroke-linejoin="round"/>
</g>
<defs>
<clipPath id="clip0_443_1620">
<rect width="42" height="42" fill="white"/>
</clipPath>
</defs>
</svg>
