<svg width="42" height="42" viewBox="0 0 42 42" fill="none" xmlns="http://www.w3.org/2000/svg">
<g clip-path="url(#clip0_443_1596)">
<path d="M21 40.6875V24.9375" stroke="#BFCBD8" stroke-width="1.5" stroke-linecap="round" stroke-linejoin="round"/>
<path d="M14.4375 31.5L21 24.9375L27.5625 31.5" stroke="#BFCBD8" stroke-width="1.5" stroke-linecap="round" stroke-linejoin="round"/>
<path d="M30.1876 27.5624H32.1564C33.4948 27.5647 34.8151 27.252 36.0104 26.6496C37.2056 26.0472 38.2424 25.172 39.0368 24.0948C39.8313 23.0176 40.3611 21.7686 40.5835 20.4487C40.8059 19.1288 40.7146 17.7751 40.317 16.497C39.9194 15.219 39.2267 14.0524 38.2948 13.0916C37.3629 12.1308 36.218 11.4027 34.9527 10.9663C33.6874 10.5298 32.3371 10.3972 31.0111 10.5792C29.685 10.7611 28.4204 11.2525 27.3194 12.0137C26.8799 9.67389 25.8123 7.49769 24.2309 5.7181C22.6495 3.93851 20.6138 2.62257 18.3418 1.91118C16.0699 1.19979 13.6472 1.11975 11.3333 1.67963C9.01936 2.2395 6.90127 3.41821 5.20584 5.08953C3.51041 6.76085 2.30149 8.86184 1.70854 11.1675C1.11558 13.4732 1.16092 15.8968 1.8397 18.1787C2.51848 20.4606 3.80514 22.5149 5.56189 24.1216C7.31865 25.7284 9.47934 26.827 11.8126 27.2999" stroke="#BFCBD8" stroke-width="1.5" stroke-linecap="round" stroke-linejoin="round"/>
</g>
<defs>
<clipPath id="clip0_443_1596">
<rect width="42" height="42" fill="white"/>
</clipPath>
</defs>
</svg>
