<svg width="24" height="24" viewBox="0 0 24 24" fill="none" xmlns="http://www.w3.org/2000/svg">
<path fill-rule="evenodd" clip-rule="evenodd" d="M13.2122 2.21645C12.5427 1.54699 11.4573 1.54699 10.7878 2.21645L0.502102 12.5022C-0.167367 13.1716 -0.167367 14.2571 0.502102 14.9265C1.17157 15.596 2.25699 15.596 2.92647 14.9265L3.42857 14.4244V20.5715C3.42857 21.5183 4.19609 22.2858 5.14286 22.2858H10.2857V17.1429C10.2857 16.1962 11.0532 15.4286 12 15.4286C12.9468 15.4286 13.7143 16.1962 13.7143 17.1429V22.2858H18.8571C19.8039 22.2858 20.5714 21.5183 20.5714 20.5715V14.4244L21.0735 14.9265C21.743 15.596 22.8285 15.596 23.4979 14.9265C24.1673 14.2571 24.1673 13.1716 23.4979 12.5022L13.2122 2.21645Z" fill="#B9BFCA"/>
</svg>
