<svg width="42" height="42" viewBox="0 0 42 42" fill="none" xmlns="http://www.w3.org/2000/svg">
<g clip-path="url(#clip0_443_1539)">
<path d="M1.3125 30.1874C1.31383 28.2346 1.79907 26.3124 2.72485 24.593C3.65062 22.8734 4.98808 21.4103 6.61761 20.3342C8.24714 19.2579 10.118 18.6024 12.0628 18.426C14.0077 18.2496 15.9659 18.5579 17.7625 19.3234" stroke="#BFCBD8" stroke-width="1.5" stroke-linecap="round" stroke-linejoin="round"/>
<path d="M6.90381 4.86621C8.02185 6.02541 9.36207 6.94735 10.8444 7.57696C12.3268 8.20659 13.9208 8.53096 15.5313 8.53071C17.1633 8.53181 18.7782 8.19952 20.2773 7.55421" stroke="#BFCBD8" stroke-width="1.5" stroke-linecap="round" stroke-linejoin="round"/>
<path d="M13.125 15.75C17.1118 15.75 20.3438 12.518 20.3438 8.53125C20.3438 4.54445 17.1118 1.3125 13.125 1.3125C9.1382 1.3125 5.90625 4.54445 5.90625 8.53125C5.90625 12.518 9.1382 15.75 13.125 15.75Z" stroke="#BFCBD8" stroke-width="1.5" stroke-linecap="round" stroke-linejoin="round"/>
<path d="M30.1875 40.6875C35.9865 40.6875 40.6875 35.9865 40.6875 30.1875C40.6875 24.3885 35.9865 19.6875 30.1875 19.6875C24.3885 19.6875 19.6875 24.3885 19.6875 30.1875C19.6875 35.9865 24.3885 40.6875 30.1875 40.6875Z" stroke="#BFCBD8" stroke-width="1.5" stroke-linecap="round" stroke-linejoin="round"/>
<path d="M30.1875 35.4375V30.1875" stroke="#BFCBD8" stroke-width="1.5" stroke-linecap="round" stroke-linejoin="round"/>
<path d="M30.1875 26.25C29.8251 26.25 29.5312 25.9562 29.5312 25.5938C29.5312 25.2313 29.8251 24.9375 30.1875 24.9375" stroke="#BFCBD8" stroke-width="1.5"/>
<path d="M30.1875 26.25C30.5499 26.25 30.8438 25.9562 30.8438 25.5938C30.8438 25.2313 30.5499 24.9375 30.1875 24.9375" stroke="#BFCBD8" stroke-width="1.5"/>
</g>
<defs>
<clipPath id="clip0_443_1539">
<rect width="42" height="42" fill="white"/>
</clipPath>
</defs>
</svg>
