<svg width="42" height="42" viewBox="0 0 42 42" fill="none" xmlns="http://www.w3.org/2000/svg">
<path d="M12.25 7.25H14.75C14.75 7.25 17.25 7.25 17.25 9.75V32.25C17.25 32.25 17.25 34.75 14.75 34.75H12.25C12.25 34.75 9.75 34.75 9.75 32.25V9.75C9.75 9.75 9.75 7.25 12.25 7.25Z" stroke="#EFF6FF" stroke-width="2" stroke-linecap="round" stroke-linejoin="round"/>
<path d="M27.25 7.25H29.75C29.75 7.25 32.25 7.25 32.25 9.75V32.25C32.25 32.25 32.25 34.75 29.75 34.75H27.25C27.25 34.75 24.75 34.75 24.75 32.25V9.75C24.75 9.75 24.75 7.25 27.25 7.25Z" stroke="#EFF6FF" stroke-width="2" stroke-linecap="round" stroke-linejoin="round"/>
</svg>
