<svg width="32" height="32" viewBox="0 0 32 32" fill="none" xmlns="http://www.w3.org/2000/svg">
<mask id="mask0_419_1357" style="mask-type:alpha" maskUnits="userSpaceOnUse" x="0" y="0" width="32" height="32">
<rect width="32" height="32" fill="#D9D9D9"/>
</mask>
<g mask="url(#mask0_419_1357)">
<path d="M18 26.6667H8.889C8.27789 26.6667 7.75467 26.4491 7.31933 26.014C6.88422 25.5787 6.66667 25.0554 6.66667 24.4443V15.3333C6.66667 12.1778 7.76667 9.5 9.96667 7.3C12.1667 5.1 14.8444 4 18 4C21.1556 4 23.8333 5.1 26.0333 7.3C28.2333 9.5 29.3333 12.1778 29.3333 15.3333C29.3333 18.4889 28.2333 21.1667 26.0333 23.3667C23.8333 25.5667 21.1556 26.6667 18 26.6667ZM18 20C19.2889 20 20.3889 19.5444 21.3 18.6333C22.2111 17.7222 22.6667 16.6222 22.6667 15.3333C22.6667 14.0444 22.2111 12.9444 21.3 12.0333C20.3889 11.1222 19.2889 10.6667 18 10.6667C16.7111 10.6667 15.6111 11.1222 14.7 12.0333C13.7889 12.9444 13.3333 14.0444 13.3333 15.3333C13.3333 16.6222 13.7889 17.7222 14.7 18.6333C15.6111 19.5444 16.7111 20 18 20ZM18.0053 17.7777C17.3278 17.7777 16.7501 17.5406 16.2723 17.0663C15.7946 16.5921 15.5557 16.0162 15.5557 15.3387C15.5557 14.6611 15.7928 14.0834 16.267 13.6057C16.7412 13.1279 17.3171 12.889 17.9947 12.889C18.6722 12.889 19.2499 13.1261 19.7277 13.6003C20.2054 14.0746 20.4443 14.6504 20.4443 15.328C20.4443 16.0056 20.2072 16.5832 19.733 17.061C19.2588 17.5388 18.6829 17.7777 18.0053 17.7777ZM3.774 26.6667C3.458 26.6667 3.19444 26.5602 2.98333 26.3473C2.77222 26.1342 2.66667 25.8703 2.66667 25.5557V21.111C2.66667 20.7963 2.77356 20.5324 2.98733 20.3193C3.20089 20.1064 3.46567 20 3.78167 20C4.09767 20 4.36122 20.1064 4.57233 20.3193C4.78344 20.5324 4.889 20.7963 4.889 21.111V25.5557C4.889 25.8703 4.78211 26.1342 4.56833 26.3473C4.35456 26.5602 4.08978 26.6667 3.774 26.6667Z" fill="#BFCBD8"/>
</g>
</svg>
