<svg width="42" height="42" viewBox="0 0 42 42" fill="none" xmlns="http://www.w3.org/2000/svg">
<g clip-path="url(#clip0_443_1536)">
<path d="M14.2188 7.21875C14.2188 8.78518 14.841 10.2875 15.9487 11.3951C17.0563 12.5027 18.5586 13.125 20.125 13.125C21.6914 13.125 23.1937 12.5027 24.3013 11.3951C25.409 10.2875 26.0312 8.78518 26.0312 7.21875C26.0312 5.65232 25.409 4.15004 24.3013 3.0424C23.1937 1.93476 21.6914 1.3125 20.125 1.3125C18.5586 1.3125 17.0563 1.93476 15.9487 3.0424C14.841 4.15004 14.2188 5.65232 14.2188 7.21875Z" stroke="#BFCBD8" stroke-width="1.5" stroke-linecap="round" stroke-linejoin="round"/>
<path d="M27.2177 18.3749C25.2763 16.6115 22.7477 15.6345 20.125 15.6345C17.5023 15.6345 14.9736 16.6115 13.0322 18.3749" stroke="#BFCBD8" stroke-width="1.5" stroke-linecap="round" stroke-linejoin="round"/>
<path d="M26.0311 7.41305C24.9645 7.72041 23.8599 7.87594 22.7499 7.87505C19.7879 7.87945 16.9332 6.76646 14.7559 4.7583" stroke="#BFCBD8" stroke-width="1.5" stroke-linecap="round" stroke-linejoin="round"/>
<path d="M26.4688 28.2188C26.4688 29.7852 27.091 31.2875 28.1987 32.3951C29.3063 33.5027 30.8086 34.125 32.375 34.125C33.9414 34.125 35.4437 33.5027 36.5513 32.3951C37.659 31.2875 38.2812 29.7852 38.2812 28.2188C38.2812 26.6523 37.659 25.15 36.5513 24.0424C35.4437 22.9348 33.9414 22.3125 32.375 22.3125C30.8086 22.3125 29.3063 22.9348 28.1987 24.0424C27.091 25.15 26.4688 26.6523 26.4688 28.2188Z" stroke="#BFCBD8" stroke-width="1.5" stroke-linecap="round" stroke-linejoin="round"/>
<path d="M40.6875 40.6874C39.7013 39.4241 38.4401 38.4021 36.9997 37.6993C35.5593 36.9964 33.9777 36.6311 32.375 36.6311C30.7723 36.6311 29.1907 36.9964 27.7503 37.6993C26.3099 38.4021 25.0487 39.4241 24.0625 40.6874" stroke="#BFCBD8" stroke-width="1.5" stroke-linecap="round" stroke-linejoin="round"/>
<path d="M38.2811 28.4131C36.3318 28.9744 34.2709 29.025 32.2963 28.5601C30.3218 28.0952 28.5 27.1304 27.0059 25.7583" stroke="#BFCBD8" stroke-width="1.5" stroke-linecap="round" stroke-linejoin="round"/>
<path d="M3.71875 28.2188C3.71875 28.9944 3.87152 29.7624 4.16834 30.479C4.46515 31.1956 4.9002 31.8467 5.44865 32.3951C5.9971 32.9435 6.6482 33.3786 7.36478 33.6754C8.08136 33.9722 8.84938 34.125 9.625 34.125C10.4006 34.125 11.1686 33.9722 11.8852 33.6754C12.6018 33.3786 13.2529 32.9435 13.8013 32.3951C14.3498 31.8467 14.7848 31.1956 15.0817 30.479C15.3785 29.7624 15.5313 28.9944 15.5312 28.2188C15.5313 27.4431 15.3785 26.6751 15.0817 25.9585C14.7848 25.2419 14.3498 24.5908 13.8013 24.0424C13.2529 23.494 12.6018 23.0589 11.8852 22.7621C11.1686 22.4653 10.4006 22.3125 9.625 22.3125C8.84938 22.3125 8.08136 22.4653 7.36478 22.7621C6.6482 23.0589 5.9971 23.494 5.44865 24.0424C4.9002 24.5908 4.46515 25.2419 4.16834 25.9585C3.87152 26.6751 3.71875 27.4431 3.71875 28.2188Z" stroke="#BFCBD8" stroke-width="1.5" stroke-linecap="round" stroke-linejoin="round"/>
<path d="M17.9355 40.6874C16.9493 39.4241 15.6881 38.4021 14.2477 37.6993C12.8074 36.9964 11.2258 36.6311 9.62305 36.6311C8.02034 36.6311 6.43872 36.9964 4.99835 37.6993C3.55799 38.4021 2.29678 39.4241 1.31055 40.6874" stroke="#BFCBD8" stroke-width="1.5" stroke-linecap="round" stroke-linejoin="round"/>
<path d="M15.5311 28.4131C13.5818 28.9744 11.5209 29.025 9.54633 28.5601C7.57179 28.0952 5.74996 27.1304 4.25586 25.7583" stroke="#BFCBD8" stroke-width="1.5" stroke-linecap="round" stroke-linejoin="round"/>
</g>
<defs>
<clipPath id="clip0_443_1536">
<rect width="42" height="42" fill="white"/>
</clipPath>
</defs>
</svg>
