<svg width="42" height="42" viewBox="0 0 42 42" fill="none" xmlns="http://www.w3.org/2000/svg">
<g clip-path="url(#clip0_443_1605)">
<path d="M9.1875 18.3943H21" stroke="#BFCBD8" stroke-width="1.5" stroke-linecap="round" stroke-linejoin="round"/>
<path d="M9.1875 24.9568H13.125" stroke="#BFCBD8" stroke-width="1.5" stroke-linecap="round" stroke-linejoin="round"/>
<path d="M9.1875 31.5193H13.125" stroke="#BFCBD8" stroke-width="1.5" stroke-linecap="round" stroke-linejoin="round"/>
<path d="M15.75 40.6875H3.9375C3.24132 40.6875 2.57362 40.411 2.08135 39.9187C1.58906 39.4264 1.3125 38.7587 1.3125 38.0625V10.5C1.3125 9.80382 1.58906 9.13612 2.08135 8.64384C2.57362 8.15157 3.24132 7.875 3.9375 7.875H10.5C10.5 6.13452 11.1914 4.46532 12.4221 3.23461C13.6528 2.00391 15.322 1.3125 17.0625 1.3125C18.8031 1.3125 20.4722 2.00391 21.703 3.23461C22.9336 4.46532 23.625 6.13452 23.625 7.875H30.1875C30.8837 7.875 31.5514 8.15157 32.0437 8.64384C32.536 9.13612 32.8125 9.80382 32.8125 10.5V14.4375" stroke="#BFCBD8" stroke-width="1.5" stroke-linecap="round" stroke-linejoin="round"/>
<path d="M17.0625 7.89429C16.7001 7.89429 16.4062 7.60046 16.4062 7.23804C16.4062 6.87559 16.7001 6.58179 17.0625 6.58179" stroke="#BFCBD8" stroke-width="1.5"/>
<path d="M17.0625 7.89429C17.4249 7.89429 17.7188 7.60046 17.7188 7.23804C17.7188 6.87559 17.4249 6.58179 17.0625 6.58179" stroke="#BFCBD8" stroke-width="1.5"/>
<path d="M30.1875 36.75C29.8251 36.75 29.5312 36.4562 29.5312 36.0938C29.5312 35.7313 29.8251 35.4375 30.1875 35.4375" stroke="#BFCBD8" stroke-width="1.5"/>
<path d="M30.1875 36.75C30.5499 36.75 30.8438 36.4562 30.8438 36.0938C30.8438 35.7313 30.5499 35.4375 30.1875 35.4375" stroke="#BFCBD8" stroke-width="1.5"/>
<path d="M30.1875 31.5V26.25" stroke="#BFCBD8" stroke-width="1.5" stroke-linecap="round" stroke-linejoin="round"/>
<path d="M40.3603 36.1935C40.5967 36.6669 40.7082 37.1929 40.6844 37.7216C40.6604 38.2503 40.5019 38.7641 40.2236 39.2142C39.9454 39.6643 39.5569 40.036 39.0947 40.2938C38.6325 40.5517 38.1122 40.6872 37.583 40.6875H22.792C22.2628 40.6872 21.7426 40.5517 21.2804 40.2938C20.8182 40.036 20.4295 39.6643 20.1515 39.2142C19.8732 38.7641 19.7147 38.2503 19.6907 37.7216C19.6667 37.1929 19.7784 36.6669 20.0148 36.1935L27.4103 21.4025C27.6684 20.8871 28.065 20.4536 28.5555 20.1507C29.046 19.848 29.6111 19.6875 30.1875 19.6875C30.764 19.6875 31.3291 19.848 31.8196 20.1507C32.3101 20.4536 32.7065 20.8871 32.9648 21.4025L40.3603 36.1935Z" stroke="#BFCBD8" stroke-width="1.5" stroke-linecap="round" stroke-linejoin="round"/>
</g>
<defs>
<clipPath id="clip0_443_1605">
<rect width="42" height="42" fill="white"/>
</clipPath>
</defs>
</svg>
