<svg width="42" height="42" viewBox="0 0 42 42" fill="none" xmlns="http://www.w3.org/2000/svg">
<g clip-path="url(#clip0_443_1677)">
<path d="M18.375 13.1215H23.625V28.8715H18.375V13.1215Z" stroke="#BFCBD8" stroke-width="1.5" stroke-linecap="round" stroke-linejoin="round"/>
<path d="M1.3125 20.9965C1.3125 26.2179 3.38671 31.2255 7.07884 34.9176C10.771 38.6097 15.7786 40.684 21 40.684C26.2214 40.684 31.229 38.6097 34.9212 34.9176C38.6133 31.2255 40.6875 26.2179 40.6875 20.9965C40.6875 15.775 38.6133 10.7674 34.9212 7.07529C31.229 3.38317 26.2214 1.30896 21 1.30896C15.7786 1.30896 10.771 3.38317 7.07884 7.07529C3.38671 10.7674 1.3125 15.775 1.3125 20.9965Z" stroke="#BFCBD8" stroke-width="1.5" stroke-linecap="round" stroke-linejoin="round"/>
</g>
<defs>
<clipPath id="clip0_443_1677">
<rect width="42" height="42" fill="white"/>
</clipPath>
</defs>
</svg>
