<svg width="42" height="42" viewBox="0 0 42 42" fill="none" xmlns="http://www.w3.org/2000/svg">
<g clip-path="url(#clip0_443_1671)">
<path d="M13.125 40.684L21 19.684M21 19.684V14.434M21 19.684L28.875 40.684" stroke="#BFCBD8" stroke-width="1.5" stroke-linecap="round" stroke-linejoin="round"/>
<path d="M31.0205 1.30725C33.1864 2.74394 34.9631 4.6943 36.1921 6.98441C37.4212 9.27451 38.0644 11.8332 38.0644 14.4323C38.0644 17.0313 37.4212 19.59 36.1921 21.8801C34.9631 24.1702 33.1864 26.1206 31.0205 27.5573" stroke="#BFCBD8" stroke-width="1.5" stroke-linecap="round" stroke-linejoin="round"/>
<path d="M28.875 8.00623C30.5572 9.72318 31.4994 12.0311 31.4994 14.4348C31.4994 16.8386 30.5572 19.1465 28.875 20.8635" stroke="#BFCBD8" stroke-width="1.5" stroke-linecap="round" stroke-linejoin="round"/>
<path d="M10.9814 1.30725C8.81547 2.74394 7.03879 4.6943 5.80974 6.98441C4.5807 9.27451 3.9375 11.8332 3.9375 14.4323C3.9375 17.0313 4.5807 19.59 5.80974 21.8801C7.03879 24.1702 8.81547 26.1206 10.9814 27.5573" stroke="#BFCBD8" stroke-width="1.5" stroke-linecap="round" stroke-linejoin="round"/>
<path d="M13.125 8.00623C11.4436 9.72362 10.502 12.0314 10.502 14.4348C10.502 16.8383 11.4436 19.1461 13.125 20.8635" stroke="#BFCBD8" stroke-width="1.5" stroke-linecap="round" stroke-linejoin="round"/>
<path d="M15.0938 35.434H26.9062" stroke="#BFCBD8" stroke-width="1.5" stroke-linecap="round" stroke-linejoin="round"/>
</g>
<defs>
<clipPath id="clip0_443_1671">
<rect width="42" height="42" fill="white"/>
</clipPath>
</defs>
</svg>
