<svg width="36" height="36" viewBox="0 0 36 36" fill="none" xmlns="http://www.w3.org/2000/svg">
<g opacity="0.5">
<path d="M22.7277 13.6379L13.2751 22.3531" stroke="#EFF6FF" stroke-width="2" stroke-linecap="round" stroke-linejoin="round"/>
<path d="M15.1578 13.3307L22.7277 13.6379L22.4205 21.2078" stroke="#EFF6FF" stroke-width="2" stroke-linecap="round" stroke-linejoin="round"/>
<path d="M3.0014 17.9957C3.0014 21.974 4.58176 25.7893 7.3948 28.6023C10.2078 31.4154 14.0232 32.9957 18.0014 32.9957C21.9797 32.9957 25.795 31.4154 28.608 28.6023C31.421 25.7893 33.0014 21.974 33.0014 17.9957C33.0014 14.0175 31.421 10.2022 28.608 7.38913C25.795 4.57608 21.9797 2.99573 18.0014 2.99573C14.0232 2.99573 10.2078 4.57608 7.3948 7.38913C4.58176 10.2022 3.0014 14.0175 3.0014 17.9957Z" stroke="#EFF6FF" stroke-width="2" stroke-linecap="round" stroke-linejoin="round"/>
</g>
</svg>
