<svg width="42" height="42" viewBox="0 0 42 42" fill="none" xmlns="http://www.w3.org/2000/svg">
<g clip-path="url(#clip0_443_1599)">
<path d="M21 24.9375V40.6875" stroke="#BFCBD8" stroke-width="1.5" stroke-linecap="round" stroke-linejoin="round"/>
<path d="M27.5625 34.125L21 40.6875L14.4375 34.125" stroke="#BFCBD8" stroke-width="1.5" stroke-linecap="round" stroke-linejoin="round"/>
<path d="M28.8751 27.5625H32.1564C33.4949 27.5648 34.8151 27.2521 36.0104 26.6497C37.2056 26.0473 38.2424 25.1721 39.0368 24.0949C39.8313 23.0176 40.3611 21.7686 40.5835 20.4487C40.8059 19.1288 40.7146 17.7752 40.317 16.4971C39.9194 15.219 39.2267 14.0524 38.2948 13.0916C37.3629 12.1308 36.2181 11.4028 34.9527 10.9663C33.6874 10.5298 32.3371 10.3972 31.0111 10.5792C29.685 10.7612 28.4204 11.2526 27.3194 12.0137C26.87 9.62132 25.7642 7.401 24.1255 5.60093C22.4868 3.80087 20.3798 2.492 18.0399 1.82061C15.7001 1.14922 13.2196 1.14177 10.8758 1.79908C8.53199 2.4564 6.41714 3.75258 4.76764 5.54276C3.11814 7.33294 1.99899 9.54657 1.53527 11.9362C1.07156 14.3259 1.28154 16.7975 2.14177 19.0747C3.00199 21.3519 4.47855 23.345 6.40642 24.8312C8.33429 26.3174 10.6375 27.2383 13.0586 27.4907" stroke="#BFCBD8" stroke-width="1.5" stroke-linecap="round" stroke-linejoin="round"/>
</g>
<defs>
<clipPath id="clip0_443_1599">
<rect width="42" height="42" fill="white"/>
</clipPath>
</defs>
</svg>
