<svg width="24" height="24" viewBox="0 0 24 24" fill="none" xmlns="http://www.w3.org/2000/svg">
<path fill-rule="evenodd" clip-rule="evenodd" d="M12 -1.04907e-06C5.37257 -1.62846e-06 1.62846e-06 5.37257 1.04907e-06 12C4.69687e-07 18.6274 5.37257 24 12 24C18.6274 24 24 18.6274 24 12C24 5.37257 18.6274 -4.69687e-07 12 -1.04907e-06ZM6.60617 9.75356L11.394 4.96577C11.7287 4.63097 12.2714 4.63097 12.6062 4.96577L17.394 9.75357C17.934 10.2935 17.5515 11.2168 16.7879 11.2168L13.7144 11.2168L13.7144 17.5714C13.7144 18.5182 12.9469 19.2857 12.0001 19.2857C11.0533 19.2857 10.2858 18.5182 10.2858 17.5714L10.2858 11.2168L7.21228 11.2168C6.44863 11.2168 6.06617 10.2935 6.60617 9.75356Z" fill="#BFCBD8"/>
</svg>
