<svg width="16" height="16" viewBox="0 0 16 16" fill="none" xmlns="http://www.w3.org/2000/svg">
<g clip-path="url(#clip0_443_1711)">
<path d="M11.6533 3.37337L8.47329 0.186701C8.41131 0.124215 8.33758 0.074619 8.25634 0.0407732C8.1751 0.00692745 8.08796 -0.010498 7.99995 -0.010498C7.91194 -0.010498 7.82481 0.00692745 7.74357 0.0407732C7.66233 0.074619 7.58859 0.124215 7.52662 0.186701L4.34662 3.37337C4.253 3.46621 4.18902 3.58474 4.16277 3.71395C4.13651 3.84315 4.14916 3.97725 4.19911 4.09927C4.24906 4.22129 4.33407 4.32576 4.44339 4.39947C4.55271 4.47318 4.68144 4.51281 4.81329 4.51337H6.81329C6.83571 4.5106 6.85846 4.51241 6.88016 4.51871C6.90186 4.52501 6.92205 4.53565 6.93951 4.54999C6.95697 4.56433 6.97133 4.58207 6.98172 4.60214C6.99211 4.6222 6.99832 4.64417 6.99995 4.6667V14.9934C6.99995 15.2586 7.10531 15.5129 7.29285 15.7005C7.48038 15.888 7.73474 15.9934 7.99995 15.9934C8.26517 15.9934 8.51952 15.888 8.70706 15.7005C8.8946 15.5129 8.99995 15.2586 8.99995 14.9934V4.6667C8.99995 4.64481 9.00426 4.62314 9.01264 4.60292C9.02101 4.5827 9.03329 4.56433 9.04877 4.54885C9.06424 4.53337 9.08262 4.5211 9.10284 4.51272C9.12306 4.50435 9.14473 4.50003 9.16662 4.50003H11.1666C11.2985 4.49948 11.4272 4.45984 11.5365 4.38614C11.6458 4.31243 11.7308 4.20796 11.7808 4.08594C11.8307 3.96391 11.8434 3.82982 11.8171 3.70061C11.7909 3.5714 11.7269 3.45288 11.6333 3.36003L11.6533 3.37337Z" fill="#BFCBD8"/>
</g>
<defs>
<clipPath id="clip0_443_1711">
<rect width="16" height="16" fill="white"/>
</clipPath>
</defs>
</svg>
