<svg width="42" height="42" viewBox="0 0 42 42" fill="none" xmlns="http://www.w3.org/2000/svg">
<g clip-path="url(#clip0_443_1527)">
<path d="M8.03323 39.5328C7.29487 40.2711 6.29341 40.686 5.24921 40.686C4.205 40.686 3.20356 40.2711 2.46518 39.5328C1.72682 38.7945 1.31201 37.7929 1.31201 36.7487C1.31201 35.7045 1.72682 34.7031 2.46518 33.9648L13.6013 22.8357L19.1693 28.4037L8.03323 39.5328Z" stroke="#BFCBD8" stroke-width="1.5" stroke-linecap="round" stroke-linejoin="round"/>
<path d="M32.1578 9.74707L16.3828 25.5219" stroke="#BFCBD8" stroke-width="1.5" stroke-linecap="round" stroke-linejoin="round"/>
<path d="M36.0476 9.66282C35.5553 10.155 34.8875 10.4314 34.1914 10.4312C33.495 10.431 32.8274 10.1543 32.3353 9.66194C31.8432 9.16953 31.5667 8.5018 31.5669 7.80559C31.5671 7.10939 31.8437 6.44179 32.3362 5.94962L36.9768 1.3125L40.6882 5.0222L36.0476 9.66282Z" stroke="#BFCBD8" stroke-width="1.5" stroke-linecap="round" stroke-linejoin="round"/>
<path d="M17.9181 14.2124L13.911 10.1965C14.3774 9.00889 14.4873 7.71098 14.2271 6.46183C13.967 5.21268 13.3481 4.06654 12.4463 3.16385C11.3907 2.11562 10.0068 1.46201 8.52668 1.3125C9.15496 2.31659 9.42434 3.50402 9.29083 4.68093C9.15732 5.85785 8.62882 6.95475 7.79159 7.7926C6.95434 8.63045 5.85782 9.15975 4.681 9.29412C3.50418 9.42848 2.31656 9.15996 1.31201 8.53241C1.41649 9.53215 1.75103 10.4941 2.28941 11.343C2.82778 12.1919 3.5554 12.9046 4.41523 13.4252C5.27507 13.9459 6.24377 14.2605 7.24548 14.3442C8.24718 14.428 9.25468 14.2786 10.189 13.908L12.9468 16.6657" stroke="#BFCBD8" stroke-width="1.5" stroke-linecap="round" stroke-linejoin="round"/>
<path d="M24.8999 28.6242L28.006 31.7285C27.4553 33.1318 27.4045 34.6822 27.8625 36.1184C28.3203 37.5548 29.2588 38.7898 30.52 39.6156C31.7814 40.4412 33.2885 40.8075 34.7883 40.6528C36.2879 40.4979 37.6884 39.8315 38.7545 38.7654C39.8204 37.6995 40.4868 36.2988 40.6417 34.7992C40.7966 33.2997 40.4303 31.7926 39.6045 30.5312C38.7786 29.2699 37.5437 28.3314 36.1074 27.8734C34.671 27.4156 33.1207 27.4664 31.7174 28.0169L27.3235 23.623" stroke="#BFCBD8" stroke-width="1.5" stroke-linecap="round" stroke-linejoin="round"/>
<path d="M34.1102 34.7767C33.7478 34.7767 33.4541 34.483 33.4541 34.1206C33.4541 33.7582 33.7478 33.4644 34.1102 33.4644" stroke="#BFCBD8" stroke-width="1.5"/>
<path d="M34.1099 34.7767C34.4723 34.7767 34.7661 34.4829 34.7661 34.1206C34.7661 33.7582 34.4723 33.4644 34.1099 33.4644" stroke="#BFCBD8" stroke-width="1.5"/>
</g>
<defs>
<clipPath id="clip0_443_1527">
<rect width="42" height="42" fill="white"/>
</clipPath>
</defs>
</svg>
