<svg width="42" height="42" viewBox="0 0 42 42" fill="none" xmlns="http://www.w3.org/2000/svg">
<g clip-path="url(#clip0_443_1593)">
<path d="M14.6177 1.3125L22.3212 6.44875L15.4734 12.4408" stroke="#BFCBD8" stroke-width="1.5" stroke-linecap="round" stroke-linejoin="round"/>
<path d="M35.1155 32.6812C33.5305 35.2022 31.3154 37.2662 28.6889 38.6694C26.0624 40.0726 23.1153 40.7664 20.1386 40.6824C17.162 40.5984 14.2587 39.7394 11.7155 38.1903C9.17232 36.6412 7.07718 34.4555 5.63696 31.8491C4.19674 29.2427 3.46127 26.3057 3.50316 23.3281C3.54505 20.3506 4.36286 17.4355 5.87583 14.8706C7.3888 12.3057 9.5446 10.1799 12.1304 8.70291C14.7161 7.22595 17.6424 6.44898 20.6203 6.44873H22.3213" stroke="#BFCBD8" stroke-width="1.5" stroke-linecap="round" stroke-linejoin="round"/>
<path d="M37.7387 23.5671C37.7397 25.0115 37.5586 26.4503 37.1997 27.8494" stroke="#BFCBD8" stroke-width="1.5" stroke-linecap="round" stroke-linejoin="round"/>
<path d="M35.1138 14.4551C35.897 15.6972 36.5164 17.0354 36.9565 18.4363" stroke="#BFCBD8" stroke-width="1.5" stroke-linecap="round" stroke-linejoin="round"/>
<path d="M28.5425 8.3877C29.6892 8.9875 30.7642 9.71549 31.7467 10.5577" stroke="#BFCBD8" stroke-width="1.5" stroke-linecap="round" stroke-linejoin="round"/>
<path d="M25.9263 27.5625V31.5C25.9263 31.8481 25.788 32.1819 25.5418 32.4281C25.2957 32.6742 24.9619 32.8125 24.6138 32.8125H16.7388C16.3907 32.8125 16.0568 32.6742 15.8107 32.4281C15.5646 32.1819 15.4263 31.8481 15.4263 31.5V27.5625" stroke="#BFCBD8" stroke-width="1.5" stroke-linecap="round" stroke-linejoin="round"/>
<path d="M12.8013 23.625L20.6763 17.0625L28.5513 23.625" stroke="#BFCBD8" stroke-width="1.5" stroke-linecap="round" stroke-linejoin="round"/>
</g>
<defs>
<clipPath id="clip0_443_1593">
<rect width="42" height="42" fill="white"/>
</clipPath>
</defs>
</svg>
