<svg width="16" height="16" viewBox="0 0 16 16" fill="none" xmlns="http://www.w3.org/2000/svg">
<g clip-path="url(#clip0_443_1710)">
<path d="M14.36 0H8.94663C8.68141 0 8.42706 0.105357 8.23952 0.292893C8.05198 0.48043 7.94663 0.734784 7.94663 1C7.94663 1.26522 8.05198 1.51957 8.23952 1.70711C8.42706 1.89464 8.68141 2 8.94663 2H13.8333C13.8775 2 13.9199 2.01756 13.9511 2.04882C13.9824 2.08007 14 2.12246 14 2.16667V10.98C14 11.0242 13.9824 11.0666 13.9511 11.0979C13.9199 11.1291 13.8775 11.1467 13.8333 11.1467H4.66663C4.64474 11.1467 4.62307 11.1424 4.60285 11.134C4.58262 11.1256 4.56425 11.1133 4.54878 11.0979C4.5333 11.0824 4.52102 11.064 4.51265 11.0438C4.50427 11.0236 4.49996 11.0019 4.49996 10.98V8.98C4.50073 8.84758 4.46205 8.71794 4.38885 8.60759C4.31565 8.49724 4.21124 8.4112 4.08895 8.36042C3.96665 8.30964 3.832 8.29643 3.70217 8.32248C3.57234 8.34853 3.45321 8.41265 3.35996 8.50667L0.193293 11.6733C0.130807 11.7353 0.0812108 11.809 0.047365 11.8903C0.0135192 11.9715 -0.00390625 12.0587 -0.00390625 12.1467C-0.00390625 12.2347 0.0135192 12.3218 0.047365 12.4031C0.0812108 12.4843 0.130807 12.558 0.193293 12.62L3.37996 15.8C3.4417 15.863 3.51533 15.9131 3.59658 15.9474C3.67783 15.9818 3.76509 15.9996 3.85329 16C4.0301 16 4.19967 15.9298 4.3247 15.8047C4.44972 15.6797 4.51996 15.5101 4.51996 15.3333V13.3333C4.51717 13.3114 4.51876 13.2892 4.52465 13.2679C4.53053 13.2466 4.54059 13.2267 4.55424 13.2093C4.56789 13.1919 4.58485 13.1775 4.60414 13.1667C4.62344 13.156 4.64468 13.1491 4.66663 13.1467H14.36C14.7949 13.1467 15.2121 12.9739 15.5196 12.6663C15.8272 12.3588 16 11.9416 16 11.5067V1.63333C15.9982 1.19953 15.8246 0.784105 15.5173 0.477985C15.2099 0.171866 14.7938 -3.58415e-06 14.36 0Z" fill="#BFCBD8"/>
</g>
<defs>
<clipPath id="clip0_443_1710">
<rect width="16" height="16" fill="white"/>
</clipPath>
</defs>
</svg>
