<svg width="42" height="42" viewBox="0 0 42 42" fill="none" xmlns="http://www.w3.org/2000/svg">
<g clip-path="url(#clip0_443_1608)">
<path d="M13.1249 35.4429H3.93213C3.23594 35.4429 2.56826 35.1663 2.07597 34.674C1.58369 34.1817 1.30713 33.5141 1.30713 32.8179V3.94287C1.30713 3.24668 1.58369 2.579 2.07597 2.08672C2.56826 1.59443 3.23594 1.31787 3.93213 1.31787H22.5329C23.2288 1.31848 23.8961 1.59545 24.3879 2.08787L29.4139 7.11212C29.6576 7.35599 29.8509 7.64549 29.9827 7.96408C30.1145 8.28266 30.1823 8.62409 30.1821 8.96887V11.8179" stroke="#BFCBD8" stroke-width="1.5" stroke-linecap="round" stroke-linejoin="round"/>
<path d="M13.1196 9.19287H15.7446C15.7446 9.19287 17.0571 9.19287 17.0571 10.5054V15.7554C17.0571 15.7554 17.0571 17.0679 15.7446 17.0679H13.1196C13.1196 17.0679 11.8071 17.0679 11.8071 15.7554V10.5054C11.8071 10.5054 11.8071 9.19287 13.1196 9.19287Z" stroke="#BFCBD8" stroke-width="1.5" stroke-linecap="round" stroke-linejoin="round"/>
<path d="M6.55713 9.19287V17.0679" stroke="#BFCBD8" stroke-width="1.5" stroke-linecap="round" stroke-linejoin="round"/>
<path d="M22.3071 9.19287V14.4429" stroke="#BFCBD8" stroke-width="1.5" stroke-linecap="round" stroke-linejoin="round"/>
<path d="M7.86963 22.3179H10.4946C10.4946 22.3179 11.8071 22.3179 11.8071 23.6304V28.8804C11.8071 28.8804 11.8071 30.1929 10.4946 30.1929H7.86963C7.86963 30.1929 6.55713 30.1929 6.55713 28.8804V23.6304C6.55713 23.6304 6.55713 22.3179 7.86963 22.3179Z" stroke="#BFCBD8" stroke-width="1.5" stroke-linecap="round" stroke-linejoin="round"/>
<path d="M18.3696 27.5679C18.3696 28.7744 18.6073 29.9691 19.069 31.0838C19.5307 32.1985 20.2074 33.2113 21.0606 34.0644C21.9137 34.9176 22.9265 35.5943 24.0412 36.056C25.1559 36.5177 26.3506 36.7554 27.5571 36.7554C28.7636 36.7554 29.9584 36.5177 31.073 36.056C32.1877 35.5943 33.2005 34.9176 34.0537 34.0644C34.9068 33.2113 35.5836 32.1985 36.0453 31.0838C36.507 29.9691 36.7446 28.7744 36.7446 27.5679C36.7446 26.3614 36.507 25.1666 36.0453 24.052C35.5836 22.9373 34.9068 21.9245 34.0537 21.0713C33.2005 20.2182 32.1877 19.5414 31.073 19.0797C29.9584 18.618 28.7636 18.3804 27.5571 18.3804C26.3506 18.3804 25.1559 18.618 24.0412 19.0797C22.9265 19.5414 21.9137 20.2182 21.0606 21.0713C20.2074 21.9245 19.5307 22.9373 19.069 24.052C18.6073 25.1666 18.3696 26.3614 18.3696 27.5679Z" stroke="#BFCBD8" stroke-width="1.5" stroke-linecap="round" stroke-linejoin="round"/>
<path d="M40.6822 40.6927L34.0532 34.0654" stroke="#BFCBD8" stroke-width="1.5" stroke-linecap="round" stroke-linejoin="round"/>
</g>
<defs>
<clipPath id="clip0_443_1608">
<rect width="42" height="42" fill="white"/>
</clipPath>
</defs>
</svg>
