<svg width="42" height="42" viewBox="0 0 42 42" fill="none" xmlns="http://www.w3.org/2000/svg">
<path d="M6.5625 10.5H35.4375C35.4375 10.5 40.6875 10.5 40.6875 15.75V26.25C40.6875 26.25 40.6875 31.5 35.4375 31.5H6.5625C6.5625 31.5 1.3125 31.5 1.3125 26.25V15.75C1.3125 15.75 1.3125 10.5 6.5625 10.5Z" stroke="#BFCBD8" stroke-width="1.5" stroke-linecap="round" stroke-linejoin="round"/>
<path d="M6.5625 21C6.5625 22.3924 7.11562 23.7277 8.10019 24.7123C9.08476 25.6969 10.4201 26.25 11.8125 26.25C13.2049 26.25 14.5402 25.6969 15.5248 24.7123C16.5094 23.7277 17.0625 22.3924 17.0625 21C17.0625 19.6076 16.5094 18.2723 15.5248 17.2877C14.5402 16.3031 13.2049 15.75 11.8125 15.75C10.4201 15.75 9.08476 16.3031 8.10019 17.2877C7.11562 18.2723 6.5625 19.6076 6.5625 21Z" stroke="#BFCBD8" stroke-width="1.5" stroke-linecap="round" stroke-linejoin="round"/>
<path d="M24.9375 21C24.9375 22.3924 25.4906 23.7277 26.4752 24.7123C27.4598 25.6969 28.7951 26.25 30.1875 26.25C31.5799 26.25 32.9152 25.6969 33.8998 24.7123C34.8844 23.7277 35.4375 22.3924 35.4375 21C35.4375 19.6076 34.8844 18.2723 33.8998 17.2877C32.9152 16.3031 31.5799 15.75 30.1875 15.75C28.7951 15.75 27.4598 16.3031 26.4752 17.2877C25.4906 18.2723 24.9375 19.6076 24.9375 21Z" stroke="#BFCBD8" stroke-width="1.5" stroke-linecap="round" stroke-linejoin="round"/>
</svg>
