<svg width="42" height="42" viewBox="0 0 42 42" fill="none" xmlns="http://www.w3.org/2000/svg">
<path d="M33.6875 17.0785V9.1875C33.6875 8.49132 33.411 7.82362 32.9187 7.33135C32.4264 6.83907 31.7587 6.5625 31.0625 6.5625H15.75L12.6 2.3625C12.3555 2.03649 12.0384 1.77187 11.6739 1.58963C11.3094 1.40738 10.9075 1.3125 10.5 1.3125H3.9375C3.24132 1.3125 2.57362 1.58906 2.08135 2.08135C1.58906 2.57362 1.3125 3.24132 1.3125 3.9375V25.8125C1.3125 26.5087 1.58906 27.1764 2.08135 27.6687C2.57362 28.161 3.24132 28.4375 3.9375 28.4375H8.3161" stroke="#BFCBD8" stroke-width="1.5" stroke-linecap="round" stroke-linejoin="round"/>
<path d="M40.6875 19.6875C40.6875 18.9913 40.411 18.3236 39.9187 17.8313C39.4264 17.3391 38.7587 17.0625 38.0625 17.0625H22.75L19.6 12.8625C19.3555 12.5365 19.0384 12.2719 18.6739 12.0896C18.3094 11.9074 17.9076 11.8125 17.5 11.8125H10.9375C10.2413 11.8125 9.57362 12.0891 9.08134 12.5813C8.58907 13.0736 8.3125 13.7413 8.3125 14.4375V36.3125C8.3125 37.0087 8.58907 37.6764 9.08134 38.1687C9.57362 38.661 10.2413 38.9375 10.9375 38.9375H38.0625C38.7587 38.9375 39.4264 38.661 39.9187 38.1687C40.411 37.6764 40.6875 37.0087 40.6875 36.3125V19.6875Z" stroke="#BFCBD8" stroke-width="1.5" stroke-linecap="round" stroke-linejoin="round"/>
</svg>
