<svg width="32" height="32" viewBox="0 0 32 32" fill="none" xmlns="http://www.w3.org/2000/svg">
<mask id="mask0_419_1360" style="mask-type:alpha" maskUnits="userSpaceOnUse" x="0" y="0" width="32" height="32">
<rect width="32" height="32" fill="#D9D9D9"/>
</mask>
<g mask="url(#mask0_419_1360)">
<path d="M7.73333 18.6667C7.13333 18.6667 6.613 18.4464 6.17233 18.0057C5.73144 17.5648 5.511 17.0444 5.511 16.4444V7.55571C5.511 6.95571 5.73144 6.43526 6.17233 5.99437C6.613 5.55371 7.13333 5.33337 7.73333 5.33337H13.3557C13.6703 5.33337 13.9342 5.44026 14.1473 5.65404C14.3602 5.8676 14.4667 6.13237 14.4667 6.44837C14.4667 6.76437 14.3602 7.02793 14.1473 7.23904C13.9342 7.45015 13.6703 7.55571 13.3557 7.55571H7.73333V10.889H12.2443C12.8443 10.889 13.3648 11.1094 13.8057 11.55C14.2463 11.9907 14.4667 12.511 14.4667 13.111V16.4444C14.4667 17.0444 14.2463 17.5648 13.8057 18.0057C13.3648 18.4464 12.8443 18.6667 12.2443 18.6667H7.73333ZM7.73333 16.4444H12.2443V13.111H7.73333V16.4444ZM19.8 18.6667C19.2 18.6667 18.6797 18.4464 18.239 18.0057C17.7981 17.5648 17.5777 17.0444 17.5777 16.4444V7.55571C17.5777 6.95571 17.7981 6.43526 18.239 5.99437C18.6797 5.55371 19.2 5.33337 19.8 5.33337H24.311C24.911 5.33337 25.4314 5.55371 25.8723 5.99437C26.313 6.43526 26.5333 6.95571 26.5333 7.55571V16.4444C26.5333 17.0444 26.313 17.5648 25.8723 18.0057C25.4314 18.4464 24.911 18.6667 24.311 18.6667H19.8ZM19.8 16.4444H24.311V7.55571H19.8V16.4444ZM5.10733 29.3334C4.79133 29.3334 4.52778 29.2269 4.31667 29.014C4.10556 28.8009 4 28.537 4 28.2224V24.0444C4 23.7297 4.10689 23.4658 4.32067 23.2527C4.53422 23.0398 4.799 22.9334 5.115 22.9334C5.431 22.9334 5.69456 23.0398 5.90567 23.2527C6.11678 23.4658 6.22233 23.7297 6.22233 24.0444V28.2224C6.22233 28.537 6.11544 28.8009 5.90167 29.014C5.68789 29.2269 5.42311 29.3334 5.10733 29.3334ZM9.55167 29.3334C9.23567 29.3334 8.97211 29.2269 8.761 29.014C8.54989 28.8009 8.44433 28.537 8.44433 28.2224V24.0444C8.44433 23.7297 8.55122 23.4658 8.765 23.2527C8.97878 23.0398 9.24356 22.9334 9.55933 22.9334C9.87533 22.9334 10.1389 23.0398 10.35 23.2527C10.5611 23.4658 10.6667 23.7297 10.6667 24.0444V28.2224C10.6667 28.537 10.5598 28.8009 10.346 29.014C10.1322 29.2269 9.86744 29.3334 9.55167 29.3334ZM13.996 29.3334C13.68 29.3334 13.4164 29.2269 13.2053 29.014C12.9944 28.8009 12.889 28.537 12.889 28.2224V24.0444C12.889 23.7297 12.9958 23.4658 13.2093 23.2527C13.4231 23.0398 13.688 22.9334 14.004 22.9334C14.3198 22.9334 14.5832 23.0398 14.7943 23.2527C15.0054 23.4658 15.111 23.7297 15.111 24.0444V28.2224C15.111 28.537 15.0041 28.8009 14.7903 29.014C14.5768 29.2269 14.312 29.3334 13.996 29.3334ZM18.4443 29.3334C18.1294 29.3334 17.8656 29.2269 17.6527 29.014C17.4398 28.8009 17.3333 28.537 17.3333 28.2224V24.0444C17.3333 23.7297 17.4398 23.4658 17.6527 23.2527C17.8656 23.0398 18.1294 22.9334 18.4443 22.9334H26.889C27.2037 22.9334 27.4676 23.0398 27.6807 23.2527C27.8936 23.4658 28 23.7297 28 24.0444V28.2224C28 28.537 27.8936 28.8009 27.6807 29.014C27.4676 29.2269 27.2037 29.3334 26.889 29.3334H18.4443Z" fill="#BFCBD8"/>
</g>
</svg>
