<svg width="42" height="42" viewBox="0 0 42 42" fill="none" xmlns="http://www.w3.org/2000/svg">
<g clip-path="url(#clip0_443_1530)">
<path d="M40.6875 36.3125C40.6875 37.4728 40.2266 38.5856 39.4061 39.4061C38.5856 40.2266 37.4728 40.6875 36.3125 40.6875H5.6875C4.52718 40.6875 3.41438 40.2266 2.59391 39.4061C1.77344 38.5856 1.3125 37.4728 1.3125 36.3125C1.3125 35.1522 1.77344 34.0394 2.59391 33.2189C3.41438 32.3984 4.52718 31.9375 5.6875 31.9375H36.3125C37.4728 31.9375 38.5856 32.3984 39.4061 33.2189C40.2266 34.0394 40.6875 35.1522 40.6875 36.3125Z" stroke="#BFCBD8" stroke-width="2" stroke-linecap="round" stroke-linejoin="round"/>
<path d="M7 24.9375H13.9335C14.3976 24.9375 14.8427 25.1219 15.1709 25.4501C15.4991 25.7783 15.6835 26.2234 15.6835 26.6875V31.9375H5.25V26.6875C5.25 26.2234 5.43437 25.7783 5.76256 25.4501C6.09075 25.1219 6.53587 24.9375 7 24.9375Z" stroke="#BFCBD8" stroke-width="2" stroke-linecap="round" stroke-linejoin="round"/>
<path d="M23.7617 24.9375H30.6952C31.1593 24.9375 31.6045 25.1219 31.9327 25.4501C32.2608 25.7783 32.4452 26.2234 32.4452 26.6875V31.9375H22.0117V26.6875C22.0117 26.2234 22.1961 25.7783 22.5243 25.4501C22.8525 25.1219 23.2976 24.9375 23.7617 24.9375Z" stroke="#BFCBD8" stroke-width="2" stroke-linecap="round" stroke-linejoin="round"/>
<path d="M30.625 11.8125C30.625 12.5087 30.9016 13.1764 31.3938 13.6687C31.8861 14.1609 32.5538 14.4375 33.25 14.4375C33.9462 14.4375 34.6139 14.1609 35.1062 13.6687C35.5984 13.1764 35.875 12.5087 35.875 11.8125C35.875 11.1163 35.5984 10.4486 35.1062 9.95634C34.6139 9.46406 33.9462 9.1875 33.25 9.1875C32.5538 9.1875 31.8861 9.46406 31.3938 9.95634C30.9016 10.4486 30.625 11.1163 30.625 11.8125Z" stroke="#BFCBD8" stroke-width="2" stroke-linecap="round" stroke-linejoin="round"/>
<path d="M28.4375 1.3125L33.25 9.1875" stroke="#BFCBD8" stroke-width="2" stroke-linecap="round" stroke-linejoin="round"/>
<path d="M14.875 11.8125H30.625" stroke="#BFCBD8" stroke-width="2" stroke-linecap="round" stroke-linejoin="round"/>
<path d="M9.625 11.8125C9.625 12.1572 9.6929 12.4986 9.82482 12.817C9.95673 13.1355 10.1501 13.4249 10.3938 13.6687C10.6376 13.9124 10.927 14.1058 11.2455 14.2377C11.5639 14.3696 11.9053 14.4375 12.25 14.4375C12.5947 14.4375 12.9361 14.3696 13.2545 14.2377C13.573 14.1058 13.8624 13.9124 14.1062 13.6687C14.3499 13.4249 14.5433 13.1355 14.6752 12.817C14.8071 12.4986 14.875 12.1572 14.875 11.8125C14.875 11.4678 14.8071 11.1264 14.6752 10.808C14.5433 10.4895 14.3499 10.2001 14.1062 9.95634C13.8624 9.71259 13.573 9.51923 13.2545 9.38732C12.9361 9.2554 12.5947 9.1875 12.25 9.1875C11.9053 9.1875 11.5639 9.2554 11.2455 9.38732C10.927 9.51923 10.6376 9.71259 10.3938 9.95634C10.1501 10.2001 9.95673 10.4895 9.82482 10.808C9.6929 11.1264 9.625 11.4678 9.625 11.8125Z" stroke="#BFCBD8" stroke-width="2" stroke-linecap="round" stroke-linejoin="round"/>
<path d="M12.25 14.4375V18.8125" stroke="#BFCBD8" stroke-width="2" stroke-linecap="round" stroke-linejoin="round"/>
<path d="M7.4375 36.3125H8.3125" stroke="#BFCBD8" stroke-width="2" stroke-linecap="round" stroke-linejoin="round"/>
<path d="M16.1875 36.3125H17.0625" stroke="#BFCBD8" stroke-width="2" stroke-linecap="round" stroke-linejoin="round"/>
<path d="M24.9375 36.3125H25.8125" stroke="#BFCBD8" stroke-width="2" stroke-linecap="round" stroke-linejoin="round"/>
<path d="M33.6875 36.3125H34.5625" stroke="#BFCBD8" stroke-width="2" stroke-linecap="round" stroke-linejoin="round"/>
</g>
<defs>
<clipPath id="clip0_443_1530">
<rect width="42" height="42" fill="white"/>
</clipPath>
</defs>
</svg>
