<svg width="42" height="42" viewBox="0 0 42 42" fill="none" xmlns="http://www.w3.org/2000/svg">
<path d="M14 21C14 22.8565 14.7375 24.637 16.0503 25.9497C17.363 27.2625 19.1435 28 21 28C22.8565 28 24.637 27.2625 25.9497 25.9497C27.2625 24.637 28 22.8565 28 21C28 19.1435 27.2625 17.363 25.9497 16.0503C24.637 14.7375 22.8565 14 21 14C19.1435 14 17.363 14.7375 16.0503 16.0503C14.7375 17.363 14 19.1435 14 21Z" stroke="#BFCBD8" stroke-width="2" stroke-linecap="round" stroke-linejoin="round"/>
<path d="M30.8002 37.1L21.7002 28" stroke="#BFCBD8" stroke-width="2" stroke-linecap="round" stroke-linejoin="round"/>
<path d="M28 21.7L37.1 30.8" stroke="#BFCBD8" stroke-width="2" stroke-linecap="round" stroke-linejoin="round"/>
<path d="M4.8999 30.8L13.9999 21.7" stroke="#BFCBD8" stroke-width="2" stroke-linecap="round" stroke-linejoin="round"/>
<path d="M20.3002 28L11.2002 37.1" stroke="#BFCBD8" stroke-width="2" stroke-linecap="round" stroke-linejoin="round"/>
<path d="M11.2002 4.8999L20.3002 13.9999" stroke="#BFCBD8" stroke-width="2" stroke-linecap="round" stroke-linejoin="round"/>
<path d="M13.9999 20.3L4.8999 11.2" stroke="#BFCBD8" stroke-width="2" stroke-linecap="round" stroke-linejoin="round"/>
<path d="M37.1 11.2L28 20.3" stroke="#BFCBD8" stroke-width="2" stroke-linecap="round" stroke-linejoin="round"/>
<path d="M21.7002 13.9999L30.8002 4.8999" stroke="#BFCBD8" stroke-width="2" stroke-linecap="round" stroke-linejoin="round"/>
<path d="M2.1001 21.0001C2.1001 26.0127 4.09134 30.82 7.63578 34.3644C11.1802 37.9089 15.9875 39.9001 21.0001 39.9001C26.0127 39.9001 30.82 37.9089 34.3644 34.3644C37.9089 30.82 39.9001 26.0127 39.9001 21.0001C39.9001 15.9875 37.9089 11.1802 34.3644 7.63578C30.82 4.09134 26.0127 2.1001 21.0001 2.1001C15.9875 2.1001 11.1802 4.09134 7.63578 7.63578C4.09134 11.1802 2.1001 15.9875 2.1001 21.0001Z" stroke="#BFCBD8" stroke-width="2" stroke-linecap="round" stroke-linejoin="round"/>
</svg>
