<svg width="42" height="42" viewBox="0 0 42 42" fill="none" xmlns="http://www.w3.org/2000/svg">
<g clip-path="url(#clip0_443_1695)">
<path d="M3.49999 1.32996C8.74999 6.03746 7.48999 4.12996 10.22 5.89746C10.9144 6.3569 11.4613 7.00712 11.795 7.76996C12.0656 8.31818 12.223 8.91533 12.2577 9.52574C12.2924 10.1361 12.2038 10.7473 11.997 11.3227C11.7903 11.898 11.4697 12.4258 11.0544 12.8746C10.6392 13.3233 10.1377 13.6837 9.58004 13.9343C9.02236 14.1849 8.4199 14.3205 7.80864 14.3331C7.19738 14.3457 6.58985 14.2349 6.02234 14.0075C5.45483 13.78 4.93898 13.4405 4.50561 13.0093C4.07223 12.578 3.73022 12.0638 3.49999 11.4975C2.71916 9.91652 2.31299 8.17696 2.31299 6.41371C2.31299 4.65045 2.71916 2.91089 3.49999 1.32996Z" stroke="#BFCBD8" stroke-width="1.5" stroke-linecap="round" stroke-linejoin="round"/>
<path d="M7.75244 14.1749L8.27744 18.8299" stroke="#BFCBD8" stroke-width="1.5" stroke-linecap="round" stroke-linejoin="round"/>
<path d="M22.1025 40.705H14.2275C12.139 40.705 10.1359 39.8753 8.65907 38.3984C7.18222 36.9216 6.35254 34.9185 6.35254 32.83V18.83H29.9775V32.83C29.9729 34.9171 29.1417 36.9175 27.6659 38.3933C26.19 39.8692 24.1897 40.7003 22.1025 40.705Z" stroke="#BFCBD8" stroke-width="1.5" stroke-linecap="round" stroke-linejoin="round"/>
<path d="M32.6025 32.83H29.9775V18.83H32.6025C34.4591 18.83 36.2395 19.5675 37.5523 20.8802C38.865 22.193 39.6025 23.9734 39.6025 25.83C39.6025 27.6865 38.865 29.4669 37.5523 30.7797C36.2395 32.0925 34.4591 32.83 32.6025 32.83Z" stroke="#BFCBD8" stroke-width="1.5" stroke-linecap="round" stroke-linejoin="round"/>
<path d="M11.8125 11.62L16.73 18.83" stroke="#BFCBD8" stroke-width="1.5" stroke-linecap="round" stroke-linejoin="round"/>
<path d="M18.8301 18.83L22.9776 7.03498L29.3826 1.29498L30.8526 9.50248L27.5626 18.83" stroke="#BFCBD8" stroke-width="1.5" stroke-linecap="round" stroke-linejoin="round"/>
</g>
<defs>
<clipPath id="clip0_443_1695">
<rect width="42" height="42" fill="white"/>
</clipPath>
</defs>
</svg>
