<svg width="24" height="24" viewBox="0 0 24 24" fill="none" xmlns="http://www.w3.org/2000/svg">
<g clip-path="url(#clip0_443_1701)">
<path fill-rule="evenodd" clip-rule="evenodd" d="M1.8102 7.71459C4.66137 5.00018 8.32891 3.64284 12 3.64286C15.6711 3.64284 19.3387 5.00018 22.1897 7.71459C22.6183 8.12259 23.2966 8.10593 23.7046 7.67736C24.1126 7.24879 24.096 6.5706 23.6673 6.16258C20.4022 3.05409 16.1993 1.49998 12 1.5C7.80067 1.49998 3.59779 3.05409 0.332657 6.16258C-0.0959149 6.5706 -0.112581 7.24879 0.295433 7.67736C0.703446 8.10593 1.38163 8.12259 1.8102 7.71459ZM4.57535 11.1278C8.67585 7.02734 15.3241 7.02732 19.4246 11.1278C19.843 11.5462 20.5214 11.5462 20.9398 11.1278C21.3583 10.7094 21.3583 10.031 20.9398 9.6126C16.0025 4.67527 7.99745 4.67527 3.06012 9.6126C2.6417 10.031 2.6417 10.7094 3.06012 11.1278C3.47855 11.5462 4.15692 11.5462 4.57535 11.1278ZM16.3945 14.2822C13.9676 11.8553 10.033 11.8553 7.60613 14.2822C7.18771 14.7006 6.50932 14.7006 6.09089 14.2822C5.67247 13.8638 5.67247 13.1854 6.09089 12.767C9.35457 9.50328 14.646 9.50328 17.9097 12.767C18.3281 13.1854 18.3281 13.8638 17.9097 14.2822C17.4912 14.7006 16.8129 14.7006 16.3945 14.2822ZM15.4286 18.8571C15.4286 16.9636 13.8936 15.4286 12 15.4286C10.1065 15.4286 8.57143 16.9636 8.57143 18.8571C8.57143 20.7507 10.1065 22.2857 12 22.2857C13.8936 22.2857 15.4286 20.7507 15.4286 18.8571Z" fill="#BFCBD8"/>
</g>
<defs>
<clipPath id="clip0_443_1701">
<rect width="24" height="24" fill="white"/>
</clipPath>
</defs>
</svg>
