<svg width="43" height="43" viewBox="0 0 43 43" fill="none" xmlns="http://www.w3.org/2000/svg">
<path d="M27.5183 0.111733C28.4389 -0.095662 29.4014 -0.0127197 30.2733 0.348403C31.1453 0.709738 31.8844 1.33232 32.3886 2.13027C32.8928 2.92815 33.1378 3.86242 33.0898 4.80502L32.9607 7.35753C32.9429 7.71537 33.0003 8.07346 33.129 8.40787C33.2577 8.74227 33.4548 9.04619 33.7079 9.29979C33.9613 9.5535 34.2654 9.75146 34.5998 9.8807C34.9336 10.0097 35.2908 10.067 35.6482 10.0499L38.2007 9.9208H38.2017C39.1438 9.87435 40.0777 10.1212 40.8745 10.6259C41.6711 11.1307 42.2921 11.8697 42.6525 12.7413C43.0127 13.6128 43.0947 14.5743 42.8872 15.4943C42.7055 16.2992 42.3106 17.0384 41.7459 17.6341L41.4926 17.8805L39.5934 19.5949L39.5924 19.5939C39.3258 19.8349 39.1134 20.1301 38.9675 20.4585C38.8215 20.787 38.7455 21.1425 38.7455 21.5019C38.7455 21.8616 38.8214 22.2178 38.9675 22.5464C39.1133 22.8747 39.3259 23.1691 39.5924 23.41H39.5934L41.4926 25.1234V25.1244C42.1929 25.7571 42.6806 26.5909 42.8881 27.5116C43.0956 28.4324 43.0128 29.3955 42.6515 30.2675C42.2901 31.1393 41.6674 31.8787 40.8696 32.3829C40.0718 32.8868 39.1373 33.1311 38.1949 33.0831L35.6433 32.954H35.3734C35.1054 32.9683 34.8406 33.0255 34.5891 33.1222C34.2537 33.2512 33.9483 33.4491 33.6942 33.7031C33.4404 33.9572 33.2422 34.2618 33.1133 34.597C32.9844 34.9324 32.9276 35.2924 32.9461 35.6513L33.0752 38.2028L33.0761 38.2096C33.1178 39.1475 32.8691 40.0757 32.3652 40.8678C31.8612 41.6596 31.1257 42.2775 30.2586 42.6369C29.3913 42.9963 28.4339 43.0798 27.5174 42.8765C26.6009 42.6731 25.7689 42.1929 25.135 41.5005L25.1311 41.4956L23.4157 39.5984C23.1748 39.3315 22.8797 39.1175 22.5512 38.9715C22.2228 38.8256 21.8671 38.7504 21.5077 38.7504C21.1483 38.7505 20.7926 38.8255 20.4642 38.9715C20.1359 39.1174 19.8415 39.3308 19.6007 39.5974L19.5987 39.5993L17.8765 41.4976L17.8755 41.4986C17.2426 42.1941 16.4099 42.6778 15.4922 42.8834C14.5744 43.0888 13.6152 43.006 12.7461 42.6467C11.877 42.2874 11.1394 41.669 10.6346 40.8756C10.1298 40.082 9.88256 39.1511 9.92558 38.2116V38.2057L10.0566 35.6542C10.0751 35.2953 10.0183 34.9363 9.8894 34.6009C9.76042 34.2654 9.56264 33.9602 9.30848 33.7061C9.05433 33.4519 8.74911 33.2541 8.41364 33.1252C8.16212 33.0285 7.89726 32.9722 7.6293 32.9579H7.35938L4.80785 33.086L4.80883 33.087C3.86673 33.1361 2.93221 32.8926 2.13407 32.3897C1.33591 31.8866 0.712447 31.1485 0.350252 30.2773C-0.0119009 29.4059 -0.0958065 28.4431 0.110648 27.5223C0.317123 26.6017 0.803898 25.7674 1.50328 25.1341L1.50426 25.1332L3.4025 23.4198C3.66924 23.1788 3.88242 22.8837 4.02841 22.5552C4.17431 22.2267 4.24937 21.8712 4.24943 21.5117C4.24943 21.1521 4.17443 20.7959 4.02841 20.4673C3.91888 20.2208 3.77168 19.9933 3.59223 19.7934L3.40055 19.6017L1.50328 17.8795L1.25096 17.6331C0.688188 17.0374 0.295097 16.299 0.11456 15.4952C-0.0917368 14.5766 -0.00958781 13.6162 0.350252 12.7462C0.710162 11.8764 1.33048 11.1391 2.12527 10.6347C2.92023 10.1303 3.85182 9.88373 4.7922 9.92862H4.79514L7.34667 10.0577H7.61854C7.88684 10.0436 8.15199 9.98714 8.40386 9.89048C8.73995 9.76141 9.04617 9.56325 9.30066 9.30859C9.55504 9.05391 9.75281 8.74793 9.88157 8.41179C9.97814 8.15958 10.034 7.89409 10.0478 7.6255V7.35069L9.92558 4.7972V4.79622C9.88148 3.8563 10.1283 2.92466 10.6327 2.13027C11.137 1.33603 11.8748 0.717137 12.7441 0.357204C13.6135 -0.00270465 14.5729 -0.0858274 15.4912 0.119557C16.2948 0.299363 17.0329 0.692155 17.6291 1.25401L17.8755 1.50437L17.8765 1.50632L19.5899 3.3987L19.5919 3.40065C19.8324 3.6677 20.1271 3.88136 20.4554 4.02754C20.7837 4.1736 21.1396 4.24852 21.4989 4.24856C21.8582 4.24852 22.2142 4.17358 22.5424 4.02754C22.8706 3.88143 23.1645 3.6675 23.405 3.40065L23.4089 3.39577L25.1331 1.50437C25.7655 0.805581 26.5988 0.318954 27.5183 0.111733ZM29.5065 2.19873C29.0166 1.99588 28.4757 1.94918 27.9584 2.06572C27.4411 2.18236 26.9722 2.45656 26.6166 2.85006L26.6137 2.85299L24.8925 4.74048C24.4641 5.21592 23.9408 5.5971 23.3561 5.85732C22.7716 6.11736 22.1387 6.2514 21.4989 6.25144C20.8589 6.2514 20.2254 6.11755 19.6408 5.85732C19.0566 5.59731 18.5335 5.2173 18.1053 4.74243L16.3919 2.85103V2.85006C16.0364 2.46009 15.5691 2.1888 15.0541 2.07355C14.538 1.95815 13.9984 2.00527 13.5098 2.20753C13.0215 2.40982 12.607 2.75782 12.3236 3.20408C12.0403 3.6503 11.9009 4.17342 11.9255 4.70136L12.0478 7.24898C12.082 7.88904 11.9817 8.53005 11.7524 9.12864C11.5232 9.72708 11.1697 10.2703 10.7168 10.7237C10.2638 11.177 9.72083 11.5306 9.12267 11.7604C8.52503 11.9898 7.88523 12.091 7.24594 12.0577V12.0586L4.69343 11.9286V11.9276C4.16617 11.9031 3.64384 12.0428 3.19811 12.3256C2.75163 12.609 2.40275 13.0233 2.20058 13.5119C1.99849 14.0006 1.95273 14.5402 2.06855 15.0561C2.16996 15.5076 2.39106 15.9225 2.70717 16.2571L2.84897 16.396L4.74624 18.1182H4.74526C5.21961 18.5469 5.59957 19.0703 5.85917 19.6546C6.11881 20.2391 6.25232 20.8721 6.25232 21.5117C6.25225 22.1514 6.11889 22.7843 5.85917 23.3689C5.59939 23.9535 5.21903 24.4775 4.74428 24.9063L2.84702 26.6197C2.45456 26.9753 2.18158 27.4437 2.06562 27.9605C1.94966 28.4777 1.99615 29.0191 2.1996 29.5086C2.40308 29.998 2.75368 30.4123 3.20202 30.6949C3.65042 30.9774 4.17588 31.1146 4.70516 31.0871H4.70614L7.25767 30.958L7.49727 30.9511C8.0556 30.9517 8.61003 31.0554 9.13244 31.2562C9.72955 31.4858 10.2722 31.8376 10.7246 32.29C11.1769 32.7423 11.5287 33.285 11.7583 33.8821C11.9878 34.4792 12.0894 35.118 12.0566 35.7569L11.9255 38.3025C11.9014 38.8304 12.0411 39.3539 12.3245 39.7998C12.6082 40.2458 13.0234 40.5934 13.5118 40.7954C14.0002 40.9972 14.5394 41.0438 15.055 40.9284C15.5706 40.8128 16.0383 40.5407 16.3939 40.1499L18.1161 38.2536C18.5443 37.78 19.0671 37.4011 19.6505 37.1417C20.235 36.8819 20.8681 36.7476 21.5077 36.7476C22.1474 36.7476 22.7803 36.8819 23.3649 37.1417C23.9489 37.4013 24.4718 37.7804 24.9003 38.2546L26.6117 40.148C26.968 40.5371 27.4365 40.8073 27.9516 40.9215C28.4665 41.0357 29.0047 40.9884 29.4919 40.7866C29.9791 40.5846 30.392 40.2369 30.6752 39.792C30.9573 39.3486 31.0973 38.8295 31.0752 38.3045L30.9451 35.753V35.752C30.9125 35.1136 31.0151 34.4749 31.2444 33.8782C31.4739 33.2814 31.8261 32.7392 32.2781 32.287C32.7304 31.8347 33.2732 31.4819 33.8703 31.2523C34.4673 31.0228 35.1062 30.9212 35.745 30.9541H35.7441L38.2966 31.0831L38.4951 31.0861C38.9565 31.0739 39.4074 30.9368 39.7997 30.689C40.248 30.4057 40.5981 29.9906 40.8012 29.5008C41.0041 29.0109 41.0506 28.47 40.9342 27.9527C40.8176 27.4354 40.5441 26.9664 40.1508 26.6109L38.2516 24.8975L38.2506 24.8965C37.7761 24.4678 37.3964 23.9445 37.1367 23.3601C36.8769 22.7754 36.7426 22.1417 36.7426 21.5019C36.7426 20.8624 36.877 20.2293 37.1367 19.6448C37.3964 19.0603 37.776 18.5362 38.2506 18.1074H38.2516L40.1498 16.394C40.543 16.0386 40.8175 15.5702 40.9342 15.0532C41.0507 14.5363 41.0046 13.9957 40.8021 13.506C40.5996 13.0163 40.2502 12.6015 39.8026 12.3178C39.3551 12.0343 38.8305 11.8949 38.3015 11.9208L35.7499 12.0508H35.748C35.1106 12.0819 34.4734 11.9795 33.8781 11.7496C33.2827 11.5196 32.7418 11.1666 32.2908 10.7149C31.8399 10.2633 31.4882 9.72234 31.2591 9.12668C31.0299 8.53097 30.9278 7.89328 30.9598 7.25582L31.0899 4.70331C31.1168 4.17364 30.9791 3.64854 30.6958 3.20017C30.4124 2.75174 29.9966 2.40179 29.5065 2.19873ZM21.4989 12.2982C23.94 12.2983 26.2812 13.2685 28.0073 14.9945C29.7334 16.7206 30.7035 19.0619 30.7036 21.5029C30.7035 23.944 29.7334 26.2852 28.0073 28.0113C26.2811 29.7375 23.9401 30.7076 21.4989 30.7076C19.0578 30.7076 16.7167 29.7374 14.9905 28.0113C13.2645 26.2852 12.2943 23.944 12.2942 21.5029C12.2943 19.0619 13.2644 16.7206 14.9905 14.9945C16.7167 13.2684 19.0578 12.2983 21.4989 12.2982ZM21.4989 14.3011C19.589 14.3012 17.7571 15.0601 16.4066 16.4106C15.0561 17.7611 14.2972 19.5931 14.2971 21.5029C14.2972 23.4128 15.0562 25.2447 16.4066 26.5952C17.7571 27.9457 19.589 28.7047 21.4989 28.7047C23.4089 28.7047 25.2407 27.9457 26.5912 26.5952C27.9417 25.2447 28.7007 23.4128 28.7007 21.5029C28.7006 19.5931 27.9417 17.7611 26.5912 16.4106C25.2407 15.0602 23.4088 14.3012 21.4989 14.3011Z" fill="#BFCBD8"/>
</svg>
