<svg width="28" height="28" viewBox="0 0 28 28" fill="none" xmlns="http://www.w3.org/2000/svg">
<g opacity="0.5" clip-path="url(#clip0_402_497)">
<path d="M16.1467 17.885C16.2342 17.8009 16.2927 17.6911 16.3137 17.5716C16.3347 17.452 16.317 17.3289 16.2634 17.22C15.5512 15.7395 14.4377 14.4888 13.0496 13.6101C11.6614 12.7315 10.0545 12.2602 8.41168 12.25C6.52472 12.2539 4.68886 12.8636 3.17451 13.9894C1.66016 15.1151 0.547361 16.6975 1.79354e-05 18.5033C-0.0253388 18.5903 -0.030106 18.6819 -0.0139062 18.771C0.00229362 18.8601 0.0390155 18.9442 0.0933513 19.0167C0.146358 19.0905 0.216545 19.1503 0.29785 19.191C0.379156 19.2317 0.469135 19.2519 0.560018 19.25H14.56C14.6365 19.2509 14.7124 19.2358 14.7827 19.2057C14.853 19.1756 14.9163 19.131 14.9684 19.075L16.1467 17.885Z" fill="#EFF6FF"/>
<path d="M2.625 5.54167C2.625 6.26941 2.76834 6.99002 3.04683 7.66237C3.32533 8.33472 3.73353 8.94563 4.24812 9.46022C4.76271 9.97481 5.37362 10.383 6.04596 10.6615C6.71831 10.94 7.43892 11.0833 8.16667 11.0833C8.89441 11.0833 9.61502 10.94 10.2874 10.6615C10.9597 10.383 11.5706 9.97481 12.0852 9.46022C12.5998 8.94563 13.008 8.33472 13.2865 7.66237C13.565 6.99002 13.7083 6.26941 13.7083 5.54167C13.7083 4.81392 13.565 4.09331 13.2865 3.42096C13.008 2.74862 12.5998 2.13771 12.0852 1.62312C11.5706 1.10853 10.9597 0.700329 10.2874 0.421834C9.61502 0.143339 8.89441 0 8.16667 0C7.43892 0 6.71831 0.143339 6.04596 0.421834C5.37362 0.700329 4.76271 1.10853 4.24812 1.62312C3.73353 2.13771 3.32533 2.74862 3.04683 3.42096C2.76834 4.09331 2.625 4.81392 2.625 5.54167Z" fill="#EFF6FF"/>
<path d="M22.785 13.7316L15.1667 21.3149C15.1109 21.3673 15.0664 21.4305 15.036 21.5008C15.0056 21.571 14.9899 21.6467 14.9899 21.7232C14.9899 21.7998 15.0056 21.8755 15.036 21.9457C15.0664 22.0159 15.1109 22.0792 15.1667 22.1316L18.6667 25.6316C18.7191 25.6874 18.7823 25.7318 18.8526 25.7622C18.9228 25.7927 18.9985 25.8083 19.075 25.8083C19.1516 25.8083 19.2273 25.7927 19.2975 25.7622C19.3677 25.7318 19.431 25.6874 19.4834 25.6316L27.0784 18.0482C27.6401 17.4721 27.9521 16.6976 27.9464 15.893C27.9408 15.0883 27.6181 14.3183 27.0483 13.75C26.4785 13.1818 25.7077 12.8612 24.903 12.8577C24.0983 12.8542 23.3247 13.1682 22.75 13.7316H22.785Z" fill="#EFF6FF"/>
<path d="M14.455 23.8699C14.3799 23.7964 14.2863 23.7446 14.1842 23.7199C14.082 23.6952 13.9751 23.6986 13.8747 23.7297C13.7743 23.7608 13.6842 23.8184 13.6138 23.8965C13.5435 23.9745 13.4955 24.0702 13.475 24.1732L12.8334 27.2999C12.8143 27.3941 12.8192 27.4916 12.8478 27.5833C12.8763 27.6751 12.9275 27.7582 12.9967 27.8249C13.0646 27.8923 13.1478 27.9424 13.2392 27.9708C13.3306 27.9993 13.4275 28.0052 13.5217 27.9882L16.6484 27.3582C16.7521 27.3404 16.8486 27.2938 16.9271 27.2236C17.0055 27.1535 17.0625 27.0627 17.0917 26.9616C17.1247 26.8609 17.1291 26.7531 17.1044 26.6501C17.0796 26.5471 17.0268 26.4529 16.9517 26.3782L14.455 23.8699Z" fill="#EFF6FF"/>
</g>
<defs>
<clipPath id="clip0_402_497">
<rect width="28" height="28" fill="white"/>
</clipPath>
</defs>
</svg>
