<svg width="16" height="16" viewBox="0 0 16 16" fill="none" xmlns="http://www.w3.org/2000/svg">
<path d="M13.8103 4.00474C13.7222 3.85213 13.5954 3.72552 13.4426 3.63772C13.2898 3.54991 13.1165 3.50404 12.9403 3.50474H3.21032C3.03572 3.50666 2.86467 3.55426 2.71418 3.64281C2.56369 3.73136 2.439 3.85778 2.35254 4.00947C2.26607 4.16117 2.22083 4.33287 2.22132 4.50748C2.22181 4.68209 2.26801 4.85353 2.35532 5.00474L7.22032 13.0397C7.30946 13.1867 7.43496 13.3082 7.58473 13.3925C7.73449 13.4768 7.90346 13.5211 8.07532 13.5211C8.24719 13.5211 8.41616 13.4768 8.56592 13.3925C8.71568 13.3082 8.84119 13.1867 8.93032 13.0397L13.7953 5.00474C13.8854 4.85404 13.9342 4.68229 13.9368 4.50675C13.9394 4.33121 13.8958 4.15807 13.8103 4.00474Z" fill="#A3B5C7"/>
</svg>
