<svg width="42" height="42" viewBox="0 0 42 42" fill="none" xmlns="http://www.w3.org/2000/svg">
<g clip-path="url(#clip0_443_1698)">
<path d="M3.31543 5.96386V4.99194C3.31543 3.05895 4.88243 1.49194 6.81543 1.49194H35.1834C37.1165 1.49194 38.6834 3.05895 38.6834 4.99194V5.96386M3.31543 27.1672V30.8891C3.31543 32.308 4.17195 33.5863 5.48408 34.126L20.9995 40.5076L36.5148 34.126C37.827 33.5863 38.6834 32.308 38.6834 30.8891V27.1672" stroke="#BFCBD8" stroke-width="1.5" stroke-linecap="round" stroke-linejoin="round"/>
<path d="M26.6015 32.3998L20.9987 34.7042L15.396 32.3998" stroke="#BFCBD8" stroke-width="1.5" stroke-linecap="round" stroke-linejoin="round"/>
<path d="M3.11279 9.98859V19.5886C3.11279 20.2251 3.32351 20.8356 3.69858 21.2856C4.07365 21.7357 4.58236 21.9886 5.11279 21.9886H7.11279" stroke="#BFCBD8" stroke-width="1.5" stroke-linecap="round" stroke-linejoin="round"/>
<path d="M26.8628 17.1886H28.1128V19.5886C28.1128 20.2251 27.8494 20.8356 27.3806 21.2856C26.9117 21.7357 26.2758 21.9886 25.6128 21.9886C24.9498 21.9886 24.3139 21.7357 23.845 21.2856C23.3762 20.8356 23.1128 20.2251 23.1128 19.5886V12.3886C23.1128 11.7521 23.3762 11.1416 23.845 10.6915C24.3139 10.2414 24.9498 9.98859 25.6128 9.98859H28.1128" stroke="#BFCBD8" stroke-width="1.5" stroke-linecap="round" stroke-linejoin="round"/>
<path d="M14.6128 9.98859C13.9498 9.98859 13.3139 10.2414 12.845 10.6915C12.3762 11.1416 12.1128 11.7521 12.1128 12.3886V19.5886C12.1128 20.2251 12.3762 20.8356 12.845 21.2856C13.3139 21.7357 13.9498 21.9886 14.6128 21.9886C15.2758 21.9886 15.9117 21.7357 16.3806 21.2856C16.8494 20.8356 17.1128 20.2251 17.1128 19.5886V12.3886C17.1128 11.7521 16.8494 11.1416 16.3806 10.6915C15.9117 10.2414 15.2758 9.98859 14.6128 9.98859Z" stroke="#BFCBD8" stroke-width="1.5" stroke-linecap="round" stroke-linejoin="round"/>
<path d="M36.6128 9.98859C35.9498 9.98859 35.3139 10.2414 34.845 10.6915C34.3762 11.1416 34.1128 11.7521 34.1128 12.3886V19.5886C34.1128 20.2251 34.3762 20.8356 34.845 21.2856C35.3139 21.7357 35.9498 21.9886 36.6128 21.9886C37.2758 21.9886 37.9117 21.7357 38.3806 21.2856C38.8494 20.8356 39.1128 20.2251 39.1128 19.5886V12.3886C39.1128 11.7521 38.8494 11.1416 38.3806 10.6915C37.9117 10.2414 37.2758 9.98859 36.6128 9.98859Z" stroke="#BFCBD8" stroke-width="1.5" stroke-linecap="round" stroke-linejoin="round"/>
</g>
<defs>
<clipPath id="clip0_443_1698">
<rect width="42" height="42" fill="white"/>
</clipPath>
</defs>
</svg>
