<svg width="16" height="16" viewBox="0 0 16 16" fill="none" xmlns="http://www.w3.org/2000/svg">
<g clip-path="url(#clip0_443_1713)">
<path d="M14.6667 0H3.94C3.58695 0.00148853 3.2489 0.142941 3 0.393333L0.393333 3C0.142941 3.2489 0.00148853 3.58695 0 3.94L0 14.6667C0 15.0203 0.140476 15.3594 0.390524 15.6095C0.640573 15.8595 0.979711 16 1.33333 16H14.6667C15.0203 16 15.3594 15.8595 15.6095 15.6095C15.8595 15.3594 16 15.0203 16 14.6667V1.33333C16 0.979711 15.8595 0.640573 15.6095 0.390524C15.3594 0.140476 15.0203 0 14.6667 0ZM12.3333 1.33333C12.4217 1.33333 12.5065 1.36845 12.569 1.43096C12.6315 1.49348 12.6667 1.57826 12.6667 1.66667V4.33333C12.6667 4.59855 12.5613 4.8529 12.3738 5.04044C12.1862 5.22798 11.9319 5.33333 11.6667 5.33333H5C4.73478 5.33333 4.48043 5.22798 4.29289 5.04044C4.10536 4.8529 4 4.59855 4 4.33333V1.66667C4 1.57826 4.03512 1.49348 4.09763 1.43096C4.16014 1.36845 4.24493 1.33333 4.33333 1.33333H12.3333ZM3.33333 14.6667C3.24493 14.6667 3.16014 14.6315 3.09763 14.569C3.03512 14.5065 3 14.4217 3 14.3333V9C3 8.73478 3.10536 8.48043 3.29289 8.29289C3.48043 8.10536 3.73478 8 4 8H12.6667C12.9319 8 13.1862 8.10536 13.3738 8.29289C13.5613 8.48043 13.6667 8.73478 13.6667 9V14.3333C13.6667 14.4217 13.6315 14.5065 13.569 14.569C13.5065 14.6315 13.4217 14.6667 13.3333 14.6667H3.33333Z" fill="#BFCBD8"/>
<path d="M10 2.83325V3.83325C10 3.96586 10.0527 4.09304 10.1464 4.18681C10.2402 4.28057 10.3674 4.33325 10.5 4.33325C10.6326 4.33325 10.7598 4.28057 10.8536 4.18681C10.9473 4.09304 11 3.96586 11 3.83325V2.83325C11 2.70064 10.9473 2.57347 10.8536 2.4797C10.7598 2.38593 10.6326 2.33325 10.5 2.33325C10.3674 2.33325 10.2402 2.38593 10.1464 2.4797C10.0527 2.57347 10 2.70064 10 2.83325Z" fill="#BFCBD8"/>
<path d="M4.6665 10.8333H8.99984C9.13245 10.8333 9.25962 10.7806 9.35339 10.6868C9.44716 10.593 9.49984 10.4659 9.49984 10.3333C9.49984 10.2006 9.44716 10.0735 9.35339 9.9797C9.25962 9.88593 9.13245 9.83325 8.99984 9.83325H4.6665C4.5339 9.83325 4.40672 9.88593 4.31295 9.9797C4.21918 10.0735 4.1665 10.2006 4.1665 10.3333C4.1665 10.4659 4.21918 10.593 4.31295 10.6868C4.40672 10.7806 4.5339 10.8333 4.6665 10.8333Z" fill="#BFCBD8"/>
<path d="M4.6665 13.5H11.9998C12.1324 13.5 12.2596 13.4473 12.3534 13.3536C12.4472 13.2598 12.4998 13.1326 12.4998 13C12.4998 12.8674 12.4472 12.7402 12.3534 12.6464C12.2596 12.5527 12.1324 12.5 11.9998 12.5H4.6665C4.5339 12.5 4.40672 12.5527 4.31295 12.6464C4.21918 12.7402 4.1665 12.8674 4.1665 13C4.1665 13.1326 4.21918 13.2598 4.31295 13.3536C4.40672 13.4473 4.5339 13.5 4.6665 13.5Z" fill="#BFCBD8"/>
</g>
<defs>
<clipPath id="clip0_443_1713">
<rect width="16" height="16" fill="white"/>
</clipPath>
</defs>
</svg>
